<svg xmlns="http://www.w3.org/2000/svg" width="99" height="485" viewBox="0 0 99 485">
    <path fill="#FFF" fill-rule="evenodd" d="M50.968 312.354c0 .075.003.515-.001.954-.007.792.29 1.644-.704 2.18-.218.118-.187.773-.197 1.183-.011.427.065.859.12 1.453-1.191-.78-1.319-2.332-.595-3.703l-.322-.359a19.286 19.286 0 0 1 2.224-2.842c-.024.434-.052.868-.091 1.302l-.434-.168M43.404 93.82a.09.09 0 0 0 .014.005l.013.076c-.007-.03-.02-.049-.027-.08m2.973 52.46c.407-1.244.861-2.367.401-3.885-.324-1.072.228-2.553.738-3.696.576-1.288.62-2.477.377-3.808-.602-3.314-.509-6.648-.097-9.98.462-3.74 1.01-7.472 1.327-11.224.273-3.248.247-6.52.404-9.78.152-3.185.402-6.365.53-9.552.392.242.984.493 1.574.87v10.169c-.458-.046-.86-.087-1.231-.123.136 3.2.206 6.41.754 9.536.318 1.814-.502 3.38-.056 5.167.177.712.223 1.462.21 2.225.025.05.052.1.076.153.289.643.539 1.39.508 2.077-.365 8.105-.824 16.206-1.165 24.312-.08 1.915.2 3.843.29 5.767.037.789.006 1.581.006 2.911-2.042-2.096-.634-5.434-3.933-6.171.069-.08.1-.648-.029-1.108-.008-.239-.114-.497-.175-.794-.226-.084-.487-.146-.74-.213l-.428-2.786.66-.068m2.894-81.224a3.294 3.294 0 0 0-.042-.243c.05.068.099.135.145.203.334-1.157.95-2.065 2.828-1.857-.369 2.242-.72 4.378-1.126 6.836-.356-.156-.975-.295-1.258-.476.042 1.48.088 2.96.125 4.442 1.51-.647 1.648-.55 2.025.787.076.265.25.585.17.803-1.144 3.06.32 6.145-.117 9.203-.086.602-.32 1.183-.599 2.174l-1.461-1.725c.033-1.17.068-2.342.085-3.513.048-3.534-.39-7.023-.883-10.52-.206-1.449.163-2.977.229-4.47.024-.546-.051-1.1-.12-1.644m.6-6.346c.403-.834.911-1.63 1.715-2.302.704 1.57.704 1.57.33 4.435l-2.672 1.132c.279-1.084.485-2.172.627-3.265m.24-17.201c.153-.342.31-.693.47-1.07 1.909.565 2.277 1.844 2.136 3.307-.262 2.708-.628 5.406-.938 7.995-.536-.772-1.082-1.54-1.605-2.323l-.015-1.107c-.014-1.31-.059-2.62-.057-3.931.001-.957.007-1.915.008-2.871m3.17 194.182c.318 1.814-.5 3.38-.056 5.167.429 1.722.109 3.653-.023 5.483-.097 1.337-.183 1.955-.72 2.313.042 5.654-.042 11.309-.047 16.963-.005 5.178.139 10.359.009 15.533a268.616 268.616 0 0 1-.254 6.41l-1.525-.725v-2.883l1.262.59-.75-2.04-1.454.614.462-2.563.267.116c-.178-.467-.623-1.032-.492-1.384.718-1.934.213-3.396-.896-5.137-.877-1.378-.208-3.285.757-4.501-1.596-3.736-.958-7.525-.901-11.244.194-.194.73-.545.679-.716-.117-.387-.526-.685-.838-1.044l1.62-.806c-1.242-.911-2.195-2.069-.948-2.998 1.26-.938 1.238-1.831.953-3.117-.37.07-.694.13-.941.175-.972-2.08 1.51-4.668-1.484-6.573l1.679-.477c-.35-.665.752-1.946-.938-2.216.175-.703.25-1.455.561-2.092.212-.434.752-.71 1.25-1.148v1.083l.234.13c.246-.502.715-1.018.684-1.503-.043-.683-.456-1.342-.733-2.072-.827.826-.138 3.023-2.22 2.99.367-.97.638-1.918 1.078-2.78.368-.723.935-1.343 1.309-1.863l-2.074-1.101c.329-.231.657-.464.974-.685l-1.183-.839c.992-1.455 2.295-2.897.995-4.873-.058.716-.114 1.432-.173 2.149-.943-.02-.943-.02-.51-3.212l.918.123v-1.28c-.565.132-1.033.24-1.58.366v-2.747l.188.07c.21-.533.343-1.114.647-1.586.34-.528.834-.958 1.39-1.575l-2.047.611 1.034-2.562-1.608-.636.1-.357 1.658-.258c-1.27-1.046-1.498-2.21-1.48-3.392a36.182 36.182 0 0 0 2.053-5.931c-.09-.281-.12-.6-.126-.947-.023-1.315-.041-2.632-.06-3.948l.382-1.66c0-.67 0-1.328-.002-1.987l-.447.161c-.039-1.64-.09-3.28-.18-4.917-.11-1.967-.607-3.92.269-5.81.231-.503.671-.91 1.016-1.36.286.5.805.99.823 1.5.195 5.876.315 11.757.453 17.636.022.946.006 1.058-.769 1.92.081.391.148.785.184 1.181.304 3.28 1.236 6.545 1.18 9.804-.047 2.655-.216 5.307-.407 7.96.171 3.518.195 7.057.798 10.497m-3.112 64.684l1.216-3.628-1.821.905-.249-.226 1.306-1.353-.737-2.665 1.333-.484-.215 2.262.441.057c.068-.771.445-1.71.139-2.28-.601-1.121-1.36-2.067-.628-3.41.152-.281.073-.687.114-1.203.205-.088.536-.23 1.106-.477-.17 3.429-.368 6.857-.503 10.286-.037.927.546 1.915.39 2.793a25.288 25.288 0 0 0-.269 2.082l-.736-.827.823-1.587-1.71-.245M40.485 20.014l.535 1.52c-1.148-.31-.618-.955-.535-1.52m-2.37 3.734l-.5-.255.937-1.897c.341.912.276 1.653-.437 2.152m-.434 4.017c-1.477 1.546-.845 3.207-.679 4.924.157 1.62.48 3.37-1.041 4.662-.099.084-.21.31-.166.385.936 1.633-.742 3.109-.251 4.755.292.981.117 2.013-.691 2.842-.282.291-.472.727-.57 1.128-.267 1.093-.986 1.697-1.948 2.182-.618.313-1.129.843-1.68 1.284-.749.6-.73 1.237.014 1.79.676.499 1.144 1.069 1.105 1.943l-3.63-1.07c-.057-1.22.837-2.583-1.038-3.125l-.322 1.492c-.58-.169-1.25-.222-1.75-.542-.943-.598-.428-1.651.869-1.786.418-.042.844-.006 1.259-.006.06-1.298.115-2.48.177-3.782l1.668.187-1.43-3.14c.564-1.068 1.21-1.784 1.24-2.524.02-.507-.818-1.048-1.387-1.706.142-.416.513-1.056.52-1.699.003-.366-.588-.739-1.024-1.237 1.306-1.261.824-3.005 1.035-4.601.182-1.378.417-2.537 2.132-2.838.538-.095.948-.924 1.31-1.304 1.511-.115 2.952-.152 4.368-.363.637-.095 1.371-.594 1.742.135.295.576.488 1.678.168 2.014M33.278 52.88a2438.79 2438.79 0 0 0-2.202-1.806l1.702-2.399c.41 1.543 1.41 2.569.5 4.205m-.289 7.538l-1.188-1.439c.276-.4.555-.803.934-1.348.728.851.5 1.64.254 2.787m-2.337-1.09c-.839-.252-1.623-.684-2.256-.967.162-.585.415-1.272.53-1.981.111-.679.079-1.38.118-2.279l2.532 1.067c.09-.563.162-1.007.231-1.446 1.15.585 1.36 1.274.502 1.887-.491.351-1.127.5-1.683.734l1.135 2.644c-.377.138-.801.435-1.109.341m-5.385 2.68c.826-.518 1.613-1.104 2.48-1.528.963-.47 1.772-.201 2.33.77-3.045 2.147-4.056 2.288-4.81.757m-.846 8.831l-.651-.433c.222-.345.365-.812.68-1.017 1.52-.996 2.28-2.325 1.927-4.26 1.18.01 1.213.954 1.826 1.709l-3.782 4.001m-1.51-11.79l2.453-3.408-.544-1.087c.294-.18.575-.39.891-.507.17-.062.407.063.777.136-.143 1.494.373 3.124-1.19 4.2-.643.443-1.188 1.375-2.388.666m-.198-3.518c-.283-1.165-.017-1.785.95-2.045.922-.248 1.106.34 1.118 1.07l-2.068.975m-2.489 4.058l.949 1.902c-.979-.167-1.523-.55-.949-1.902m-1.237-3.093c-.316.994-.885.889-1.957.1l1.769-.846c.102.377.239.591.188.746m-2.383 146.13c-.809.055-1.222-.365-1.016-1.214.167-.686.361-1.364.54-2.032 1.593.208 1.593.208 1.803 2.831-.419.138-.865.382-1.327.414M13.931 148.7c.165-.98.263-1.57.36-2.154l2.535-.195c.036.16.072.319.106.48-.93.484-1.6 1.39-3 1.87m1.988 11.448l-.57-.108.263-1.647c.975.785.62 1.27.307 1.755m-1.373-8.389c1.69.485 1.868.881 1.216 3.137l-1.216-3.137m.291 17.591c-.14-.032-.27-.262-.33-.432-.023-.07.171-.308.233-.296.166.032.314.157.798.435-.356.16-.551.327-.7.293m-.352 11.176c-.007.017-.348-.049-.35-.089-.028-.392-.017-.786-.017-1.18l.766.141c-.127.378-.25.758-.4 1.128m-3.036-8.61c.529-.727.963-1.324 1.396-1.922l.607.228.57 2.093c-.857-.133-1.54-.24-2.573-.399m1.841-26.147c1.018-.251.963.265.972.723l-.972-.723m-1.023-12.919c-.232-.338-.246-.826-.303-1.05l-1.73.11c-.197.343-.462.805-.726 1.269-.246-1.627-.476-3.182.395-4.602l3.175.433c.09.353.317.777.274 1.172-.077.712-.406 1.375.288 2.023.137.128-.245.811-.388 1.238-.338-.19-.787-.305-.985-.593m-.22 12.824c-.49-1.087.148-1.747.809-2.39.345.964.407 1.837-.81 2.39m-.045-8.886c.052-.282.217-.545.356-.804.006-.01.347.107.344.152-.017.256-.054.525-.159.756-.08.174-.257.304-.397.45-.065-.187-.176-.383-.144-.554m-1.44 1.1l-.631 2.015-1.645-.322.238-2.695 3.595.5c-.197.673-.397 1.348-.69 2.337l-.868-1.834m-3.288-3.71c1.213-1.087 1.07.299 1.616.72-1.205.752-1.256-.258-1.616-.72m3.881-8.222c.421 1.593-.348 2.132-1.241 2.593l-.415-1.296 1.656-1.297m-1.531-9.65c.13-.138.277-.4.39-.385.21.026.401.211.703.392-.28.24-.482.495-.556.461-.208-.093-.362-.304-.537-.469m1.709 4.535c-.767-1.021-1.634-1.749-.669-2.93 1.507 1.224 1.56 1.408.669 2.93m-4.141-8.545h2.84l1.441-2.523 1.027 3.107c-.584.2-1.312.287-1.82.668-.43.326-.609.989-1.048 1.765l-2.44-3.017M5.76 96.333l1.92-.604 1.184 2.539-.423.344c-1.111-.344-2.007-.961-2.681-2.279m1.011 4.888c-.277-.36-.604-.644-.555-.748.157-.328.434-.616.72-.849.044-.036.585.378.558.442-.147.356-.4.668-.723 1.155m3.016-89.207c-.05.025-.49-.464-.444-.554.201-.385.518-.71.917-1.215.313.5.671.95.618 1.006-.305.317-.694.564-1.091.763M8.003 10.79l-.765-2.98c2.298 1.486 2.313 1.558.765 2.98m-.445 3.825c-.207-.131-.347-.365-.512-.56l.605-.454c.151.281.33.482.344.695.007.104-.375.36-.437.319m5.047 69.656l-1.293-2.1c1.848.255 1.896.326 1.293 2.1m2.615-9.666l.116 1.965h-2.544l-.164-2.175c.605-.673 1.519-.372 2.592.21m-2.133 6.119l1.485-3.445c.751 1.437 1.06 2.497.446 3.878a813.99 813.99 0 0 0-1.931-.433m.86 45.463c-.22.09-.392.192-.576.221-.078.012-.267-.172-.258-.19.081-.156.195-.294.3-.437l.534.406m-.089-14.006c-.12-.127-.279-.237-.347-.388-.028-.064.132-.306.203-.304.165.003.328.106.591.206l-.447.486m-1.185 86.335l2.136-1.066c-.261 1.3-.608 1.844-2.136 1.066m1.897 3.806c-.684.932-1.404 1.811-1.553 3.222-1.09-1.213-2.201-1.253-3.373-.59-.82-.94-.407-1.686.032-2.454l3.145-.306-.531-2.08c.362-.049.622-.137.87-.108.63.07 1.4.016 1.539.867.077.474.119 1.11-.13 1.449m-2.919 7.002c-.75.318-1.09-.44-1.36-1.025-.193-.422-.328-.869-.583-1.558l3.172 1.184c-.409.49-.718 1.184-1.229 1.399m.827-56.57c-.11-.315-.22-.63-.329-.947l.72.67-.391.278m-6.922-128.8l1.496.302c-1.043.563-1.065.568-1.496-.302m.401 56.897v-.043l.031.031c-.01.007-.02.007-.03.012v2.777c-1.482.659-1.482.659-.734 2.805-.345-.091-.58-.117-.78-.217-.231-.116-.43-.297-.66-.462-.58 1.112-.58 1.112-.413 2.212-1.76-.185-1.76-.185-1.997-2.905.97.22 2.122.837 2.614-.819-1.158-1.174-1.24-2.622-.492-4.218.899.044 1.379 1.436 2.461.827zm4.834 79.2v-.001l.022.03c-.024 0-.04.007-.064.008l.005-.035.037-.003zm86.59-13.04c-.119 1.59-.193 3.194-.14 4.788.118 3.561.496 7.122.444 10.679-.039 2.527-.637 5.043-.932 7.57-.624 5.359-1.258 10.718-1.8 16.086-.379 3.77-.538 7.563-.928 11.331-.328 3.187-.824 6.358-1.28 9.531-1.235 8.586-2.512 17.166-3.725 25.755a1020.134 1020.134 0 0 0-2.394 17.987c-.729 5.932-1.333 11.877-2.017 17.813-.276 2.39-.635 4.769-.928 7.156-1.138 9.261-2.24 18.526-3.407 27.784-.537 4.268-1.224 8.518-1.783 12.783-.74 5.636-1.42 11.28-2.126 16.92-.01.072-.015.145-.023.218-.419 3.486-.543 3.564-3.834 2.594a4.066 4.066 0 0 0-1.282-.164c-3.125.122-6.247.355-9.372.39-3.371.037-6.744-.036-10.116-.092l-.01-.072c-.38-2.547-.254-5.179-.737-7.7-.662-3.45-.573-6.918-.237-10.327-.094.065-.187.13-.297.197-.346.211-.577.614-1.145 1.245.505-.063.872-.11 1.183-.15a7.645 7.645 0 0 1-.66.928l-.533-.383.247.696c-.068.07-.134.144-.203.206-2.079 1.877-4.821 5.336-6.41 11.462.075.082-6.29 2.929-9.523 2.696-3.678-.266-7.337-.865-11.032-.952-2.159-.051-2.422-.304-2.742-2.487-.154-1.05-.35-1.902-1.833-1.557l.83-1.526c1.654.863 3.238.702 4.886-.041.118-.912.353-1.855-.637-2.317-.341-.158-.943.248-1.57.44-1.097-.79-.056-3.247-2.397-3.6-.365 1.087-.782 2.146-1.07 3.24-.326 1.23-1.092 1.401-2.246 1.09-.394-1.098.72-2.841-1.585-3.06.936-1.258 1.115-2.193.963-3.474-.162-1.375.013-2.809-.316-4.24-.272-1.178 1.075-1.099 2.07-1.69l-2.548-1.248c-.372-.924.213-1.412.953-1.586 1.246-.29 1.61-1.089 1.618-2.223.01-1.246.058-2.494-1.143-3.327-.346-.24-.667-.517-1.048-.815.123-.409.185-.766.331-1.083 1.023-2.2 1.03-2.196-.983-3.33.342-.547.775-1.056 1-1.644.392-1.012.472-2.032-.733-2.626-.924-.454-1.301-1.233-1.06-2.165.375-1.454.032-2.57-1.171-3.46-.204-.152-.284-.47-.506-.858 1.345-.6 2.79-.927 2.69-2.882-.08-1.581-.489-2.815-1.826-3.602 1.188-3.28.539-5.981.209-7.24-.164-.625-.348-1.251-.45-1.888-1.117-7.006-1.952-14.057-3.61-20.975-.388-1.61-.295-3.33-.464-4.996-.54-5.282-1.015-10.57-1.679-15.836-.536-4.256-1.4-8.47-1.942-12.724-.284-2.222-.192-4.494-.254-6.743-.016-.575.07-1.155.036-1.728-.1-1.681.721-2.775 2.458-3.208 1.766-.44 2.003-.938 1.592-2.778-.182-.818-.112-1.693-.156-2.533l-.708.12c.618-3.977.618-3.977 1.903-5.214l.217 2.46c.477-.339.979-.509 1.128-.838.406-.9.731-1.852.953-2.815.118-.506-.026-1.082-.113-1.615-.012-.073-.526-.178-.567-.115-.284.445-.51.928-.743 1.404-.087.178-.139.371-.255.696-1.302-1.026-.228-2.587-1.12-3.415l4.734-1.149-.165 2.08 1.548 1.127.39-.186-.732-3.616 2.32 1.315c-1.42-2.524-.315-4.536-.16-6.588-1.18-.033-1.18-.033-2.957.805l1.255 1.655c-.785.61-1.552 1.202-2.68 2.077 0-.824-.008-1.27 0-1.713.037-2.107 1.416-3.587 2.425-5.25.673-1.111.622-1.142-.835-2.332l-1.521 3.148c-.582-1.879.721-2.704 1.15-3.738-.804-.675-1.578-1.253-2.245-1.935-.159-.164-.043-.716.095-1.021.36-.796.895-1.199 1.757-.119.176-.793.276-1.27.387-1.745.103-.438.217-.874.412-1.655-.812.234-1.273.334-1.707.503-.464.18-.903.425-1.417.673l-1.002-1.835 1.317.155c0-.762.123-1.478-.045-2.117-.103-.398-.607-.765-1.02-.965-.14-.068-.547.418-.882.69-.19-2.2-.29-4.404 2.295-5.483l-.211-3.507 1.708 1.921c.784-.606.708-1.344.102-2.139-.745-.973-1.497-1.94-2.246-2.911 1.763-.11 1.78-1.543 2.108-2.872-.955-.789-2.493-1.042-2.69-2.586a4.233 4.233 0 0 1 .159-1.881c.615 1.642 1.083 3.273 3.317 2.505.24-1.475-.973-1.6-1.954-2.046l.356-1.43a.363.363 0 0 0-.02-.018l1.24-2.373c-1.718.448-3.118.073-4.313-.84-.3-.227-.272-.886-.507-1.77.56.428.77.579.969.745.427.359.971.646 1.258.021.146-.317-.105-.984-.392-1.29-.316-.336-.88-.439-1.297-.626.67-1.572 1.341-3.145 2.01-4.718l-.227-.362c-1.746.966-3.195.564-4.287-.528l.702-5.827c-1.585-.022-1.966-1.21-2.218-2.42-.19-.907-.205-1.85-.337-3.168l2.465 2.428c.598-.46.991-1.084.462-1.922-.446-.71-.555-1.332.07-1.96.624-.629 1.195-.056 1.785.087.133-.54.27-1.092.49-1.99-1.735.418-3.285-1.673-5.02.354l-.45-1.971c1.521-.33 2.969-.642 4.579-.99l-.62-1.843c1.282-1.454 1.287-1.69-.196-3.033-.532.722-1.11 1.399-1.56 2.153-.3.502-1.842 1.305-2.368 1.034-.431-.223-.787-.667-1.231-.765-.44-.099-.948.113-1.598.215v-2.073c2.453.265 3.352-2.07 5.253-3.03v1.952c.386 0 .86.14 1.032-.029.364-.356.861-.933.783-1.311-.177-.857-.712-1.603-1.757-1.68-.504-.036-1.007-.07-1.556-.11a796.71 796.71 0 0 1-.583-1.328c-2.29.245-.932 2.373-1.874 3.263-1.384-1.143-1.443-1.39-.432-2.569.883-1.03 1.812-2.02 2.736-3.045 2.034 1.226 2.816.6 3.145-2.75l-2.081-1.093c.49-.187.877-.214 1.001-.409.247-.383.599-1.001.45-1.267-.24-.431-.817-.758-1.32-.916-.178-.055-.718.466-.803.799-.203.778-.174 1.655-1.254 1.765-1.002.103-1.851-.082-2.388-1.104-.292-.555-.801-.995-1.429-1.747.638-.169 1.065-.411 1.455-.363 1.498.185 1.634.123 1.641-1.302.004-.65-.067-1.3-.11-2.04.268-.204.528-.464.838-.626 1.17-.615 1.14-1.504.745-2.596-.408-1.128-1.395-2.052-1.114-3.464.057-.286-.73-.773-1.165-1.119-.562-.446-.579-.425-.462-1.66 1.322-.12 2.281.363 2.857 2.073.678-.98 1.145-1.655 1.659-2.401l1.543.266-.917 1.794c1.14-.034 1.978-.097 2.331-1.105.294-.836-.188-1.334-.817-1.822-1.157-.897-1.848-2.035-1.485-3.608.177-.133.334-.287.52-.386 1.928-1.02 2.006-1.457.405-2.89C7.63 81.825 7.249 80.68 6 80.81c.88-1.771.268-3.286-.783-4.764-.533-.75-.944-1.585-1.547-2.615.557 0 1.105-.071 1.128.01.483 1.654 2 2.198 3.374 3.132l-.809.976c.49 1.204.883 2.359 1.435 3.432.184.358.753.571 1.19.72.18.061.675-.21.684-.351.021-.389-.002-.954-.248-1.153-1.165-.944-1.122-1.96-.308-3.038.588-.78.535-1.486-.103-2.152-1.038-1.082-.914-2.177-.184-3.361.451-.733.638-1.498-.406-2.113-1.203.252-1.734.91-1.518 2.292.116.738-.158 1.537-.677 2.356-.126-.56-.188-1.146-.395-1.674-.219-.557-.225-1.374-1.182-1.304-.708.053-.991-.423-.74-.95.14-.295.74-.404 1.155-.516.167-.046.392.122.672.222.623-1.367-.168-2.218-.955-2.964.339-.79.85-1.489.882-2.207.027-.62-.493-1.263-.894-2.178l1.974.33c.423-.617.587-1.17-.3-1.542-.335-.14-.665-.293-1.007-.414-.723-.254-1.698-.19-1.78-1.281-.076-1.013-.18-2.06.917-2.705.16-.093.219-.356.375-.631-.539-1.078-1.123-2.174-1.634-3.304-.172-.378-.314-.893-.196-1.256.306-.94-.003-1.702-.422-2.49-.519-.977-.481-1.973.06-2.922.466-.816.917-1.657 1.505-2.38 1.203-1.482 1.317-2.992.35-4.642.508-.498 1.034-.913.57-1.823-.51-.996-.509-2.08.125-3.132.238-.395.334-.99.25-1.449a261.545 261.545 0 0 0-1.604-7.988c-.126-.589-.177-1.004.552-1.066l.485-2.41-3.12-1.232c.812-.744.526-2.259 2.14-2.066.027.451-.051 1.239.1 1.285.619.192 1.308.159 2.056.214-.214-1.515-.325-2.736-.59-3.923-.086-.376-.583-.66-.891-.986-.136.359-.3.71-.399 1.08-.068.258-.047.541-.097 1.253-.595-.448-1.147-.649-1.209-.95-.17-.833-.351-1.775.53-2.392.522-.366 1.094-.66 1.812-1.086L4.7 10.348l2.604-4.12 1.12-.119c.671.734 1.283 1.4 1.894 2.067l.422-.166-.119-2.556c.102-.092.238-.31.419-.359.554-.147 1.14-.179 1.684-.35.495-.153.085-.777.683-1.197 1.114-.78 2.109-1.099 3.417-.935.765.097 1.566-.11 2.352-.158 2.174-.135 4.348-.263 6.523-.387.431-.025.877.036 1.295-.047l11.73-.456c-.353.308-.706.614-1.043.937-.196.188-.153.627-.233 1.012l2.464-.467-.528 2.86c1.162-.358 1.971-.61 2.473-.764-.122 1.552-.336 3.017-.326 4.48.012 1.792-.388 3.35-2.004 4.695 1.936.701 1.48 2.144.906 3.683 1.649-.042 2.14-2.508 3.875-1.34.16 1.014-.4 1.42-1.287 1.778-.889.36-1.673.98-2.492 1.498 1.984.475 2.336.851 2.634 2.766l.926 6.01c1.007-.418 1.004 1.5.872 1.652 1.288.289 1.856.976 2.194 1.83a156.1 156.1 0 0 1-.06-3.133c-.016-1.723-.851-3.493.27-5.163.07-.1.002-.287.018-.431.223-1.978-.478-4.018.464-5.963.197-.407.123-1.053-.048-1.505-.294-.78-.112-1.429-.026-2.219.3-2.745.877-5.524.073-8.324-.244-.853.043-1.862.116-2.798.134-1.729 1.902-1.527 1.902-1.527l5.273-.205c.256-.002.513.008.769.003l10.14-.488c1.713.81 3.387.764 5.024.78 7.004.067 14.008.082 21.012.116.949.005 1.898-.027 2.845.021 1.864.094 2.307.535 2.45 2.34.025.29.036.583.037.875.064 11.158.123 22.316.194 33.473.009 1.386.151 2.773.114 4.156-.12 4.512-.327 9.023-.436 13.535-.05 2.04.124 4.085.067 6.124-.127 4.587-.533 9.176-.465 13.759.114 7.724.533 15.445.775 23.168.116 3.716.124 7.435.177 11.153.072 4.953.153 9.907.203 14.862.013 1.237-.131 2.475-.107 3.712.061 2.976-.086 5.94.15 8.938.247 3.147-.47 6.366-.707 9.558zm-86.57 11.763c.168.332-.017.842-.057 1.278l-3.316.196 1.865-3.628c.574.794 1.138 1.426 1.508 2.154zM5.987 80.84l-.03-.031c.016-.002.028.002.043 0-.005.01-.007.02-.013.03zm5.225 82.328l.032-.033.004.074-.036-.04zm25.202 311.26l-.293.295c.24.24.48.477.72.715l.296-.298-.723-.712m-3.62 1.195c.783-.203 1.333-.529.71-1.474l-.71 1.474M9.721 407.828c.11-.61.233-1.112-.457-1.264-.168-.038-.537.177-.579.337-.17.65.265.841 1.036.927m17.59-3.79c-.38.513-.662.807-.822 1.157-.052.114.214.373.335.565.332-.233.712-.427.965-.727.073-.087-.223-.484-.477-.994m-15.223.656c-.098 1.53.001 1.603 1.395.998l-1.395-.998m30.57 56.488c-.405 1.156-.748 2.01-1.002 2.89-.455 1.578-.449 3.142.405 4.607.316.542.76.873 1.274.546 1.563-2.293.799-4.683.743-7-.024-.988-.608-1.326-1.42-1.043m2.057-4.678c.014.323.287.637.44.955.339-.235.796-.402.979-.724.157-.276-.004-.731-.023-1.107-.11-2.19-.494-4.411-.263-6.565.302-2.795-.224-5.555.086-8.344.297-2.667.2-5.376.312-8.064.058-1.394.187-2.785.295-4.178.077-1.006-.042-2.091.3-3 .922-2.446.656-4.96.723-7.461.008-.306-.095-.641-.235-.918-.537-1.055-1.11-2.091-1.722-3.237 0 0-2.634.947-3.541.303-.381-.27-1.284.198-1.951.323-.244.046-.49.071-.7.1-.163.472-1.727.359-2.585-.343l.36 2.208c.496.195.902.423 1.337.51.998.2 1.331.714 1.329 1.764-.003.857.44 1.713.666 2.574.13.486.242.977.329 1.473.132.75.18 1.52.361 2.256.46 1.861 1.36 3.705 1.37 5.56.011 2.201.977 4.337.361 6.575-.102.37.326.947.62 1.346.245.333.654.547.995.818-1.49 1.682-1.498 2.175-.182 4.107.422.62.426 1.138-.272 1.64-.858.617-1.662 1.327-.746 2.528.113.149.114.538 0 .68-.75.926.12 1.687.145 2.497.028.878-.736 1.76-.32 2.75.062.147.274.233.532.439.287-.42.948 1.32 1 2.535m-11.224-47.813c-.209-.129-.557-.22-.604-.39-.295-1.097-.974-.931-1.738-.682.133 1.694.56 1.868 2.336 1.04l.535 1.371 1.375-.965-.112-.374h-1.792m-25.53 63.28c.739.204 1.847.115 1.706 1.58-.382-.064-.754-.125-1.276-.21l.567 1.872-2.86-.648c.42-.701 1.082-1.372 1.195-2.124.097-.64-.437-1.376-.822-2.425-.642.846-1.037 1.368-1.552 2.05-.19-.382-.475-.677-.426-.897.464-2.083-.453-4.048-.471-6.084-.006-.58-.116-1.183.004-1.737.37-1.707-.125-3.21-.93-4.665-.061-.113-.167-.227-.17-.342a487.776 487.776 0 0 1-.106-6.329c-.006-.751.047-1.506.09-2.257.046-.818.053-1.645.182-2.451.192-1.191.522-2.36.71-3.55.248-1.579.424-3.168.61-4.754.045-.367.106-.777-.01-1.109-.47-1.359-.621-2.574 1.403-3.121-1.102-.927-.95-1.862-.886-2.86.06-.94-.223-1.901-.361-2.853-.018-.127-.122-.265-.093-.371.377-1.354-.195-2.642-.237-3.96-.023-.708.2-1.344.555-2.052.408-.815-.066-2.093-.218-3.161-.205-1.443-.702-2.897.394-4.288-.515-.624-1.175-1.277-.322-2.138.13-.13.317-.392.27-.479-.555-1.007-.313-1.867.116-2.9.34-.815.068-1.884.068-2.963l1.336.399c-.097-.59-.11-1.076-.26-1.515-.541-1.597-.32-1.953 1.328-1.968.181 0 .363.096.544.147l-.292 1.904.317.151 1.567-1.32 1.01 1.57c.658-1.06.593-1.348-.579-2.541.42-.03.88.039 1.256-.106 1.47-.566 1.46-.592 2.62.488.678-.357 1.164-1.395 2.218-.86.123.064.405-.038.532-.153 1.356-1.237 2.335-.359 3.334.551.376.342.767.768 1.224.896 1.088.304 1.613.944 1.492 2.079 1.423-.33 1.423-.33 1.555-2.156.594.526 1.159.817 1.637-.11.322-.621.775-.888 1.568-.832.515.036 1.067-.436 1.692-.722.559 1.587.278 3.094-.467 4.647 1.26-.579 1.26-.579 1.887-2.483 1.104.187-.314 1.981 1.325 1.856.386-1.214 1.228-1.823 2.672-1.782 1.376.04 1.697-1.304 2.343-2.245-.232 1.221.646 2.689-.964 3.369.158.904.366 1.545 1.31 1.743.507-1.043-.446-2.56 1.035-3.162.239-.098.572.036 1.016.077l-.896 1.634c1.255.72 1.89-.998 2.948-.521l2.115 1.683-1.87-.152c-.039.248-.096.485-.107.725-.039.872.248 1.531 1.44 1.67-.48.785-.93 1.389-1.226 2.061-.162.369-.23.958-.04 1.25.176.27.783.437 1.151.37 1.128-.204 2.232-.543 3.296-.816.448-1.378.325-2.64-.301-3.693-.705-1.18-.642-2.152.108-3.203.102-.143.093-.367.131-.533l-1.274-2.159c1.007-1.29 2.274-1.56 3.68-1.591 1.73-.038 3.46-.207 5.188-.202.956.004 1.906.321 2.866.368 2.776.135 5.556.207 8.335.296.968.031 1.941.002 2.906.08.388.032.748.32 1.14.416.406.099 1.079.295 1.214.12.603-.774 1.39-.51 2.127-.572 2.182-.185 4.363-.41 6.55-.534.733-.042 1.483.155 2.222.266.567.086 1.126.28 1.693.3 1.55.051 3.103.005 4.654.054 1.468.046 1.634.213 1.94 1.62.66 3.06.651 6.163.518 9.262-.125 2.903-.286 5.809-.58 8.698-.81 8.006-.192 16.018-.209 24.027-.007 3.74-.139 7.481-.116 11.22.014 2.453.298 4.904.29 7.355-.01 3.417-.088 6.84-.31 10.248-.178 2.7-.617 5.383-.921 7.922-1.236.54-2.383 1.26-3.628 1.53-1.495.325-3.075.388-4.614.358-8.919-.175-17.835-.417-26.753-.613-.769-.018-1.567.038-2.306.234-1.532.408-2.926-.268-4.379-.443-.244-.03-.514-.36-.655-.617-.307-.553-.49-1.18-.815-1.72-.392-.651-.423-1.318.136-1.755.763-.597.531-1.143.28-1.863-.314-.905-.416-1.882-.685-2.805-.112-.382-.365-.929-.652-.999-.322-.08-.81.228-1.129.487-.798.649-1.007 1.593-1.109 2.566-.783-.712-.606-1.582-.223-2.582-.644-.23-1.158-.498-1.698-.575-.397-.056-1.107.037-1.186.246-.152.408-.085 1.01.119 1.415.615 1.216 1.695 1.63 3.019 1.462-1.63 1.154-2.677 1.11-3.762-.148-1.795-.487-1.42 2.3-2.987 2.018l-2.84-2.416.15-1.664c-.73-.32-1.34-.83-1.089-1.851l1.59-1.332c.312.239.475.962 1.078.352.628-.635.484-1.057-.935-2.588-.156.201-.298.39-.447.573-.144.177-.296.349-.655.77l-.254-1.628-1.625.229c-.064.876.711 1.78-.367 2.335-1.63-.942-2.29-.983-3.51-.222-.666.416-.666.416-.524 2.117-1.647.693-3.23.983-4.802-.336-.846-.708-1.836-1.028-3.024-1.037-1.25-.007-2.504-.223-3.651-1.014-1.016-.7-2.25-1.132-3.442-1.511-.687-.218-2.858.205-2.674 2.661" opacity=".1"/>
</svg>
