<svg xmlns="http://www.w3.org/2000/svg" viewBox="0 0 130.62 31.26"><defs><style>.cls-1{fill:#fff;}</style></defs><title>Asset 1</title><g id="Layer_2" data-name="Layer 2"><g id="Layer_1-2" data-name="Layer 1"><path class="cls-1" d="M99.16,18.27a4.06,4.06,0,0,1-3,1.44c-2,0-3.34-1.67-3.34-4.23,0-2.87,1.52-4.16,3.49-4.16a4.37,4.37,0,0,1,2.88.91v6Zm6.45,1.44v.15l-1.52,1.28.23,2-.15.07a5.89,5.89,0,0,1-4.1-2.11A7.47,7.47,0,0,1,95,23.33c-4.39,0-7-3.32-7-7.63,0-5.28,3.79-8,7.2-8a6,6,0,0,1,4,1.28l.76-.9h4v9.59A1.87,1.87,0,0,0,105.61,19.71Zm-77.33-3.1V8.08H33v8.15c0,4.38-2.12,7.1-7.28,7.1S18.42,21,18.42,16.46V8.08H23.2v8.53c0,1.81.68,3.1,2.5,3.1s2.58-1.29,2.58-3.1Zm24.33-3.85V21.9l3.11-.61V23H47.16V21.29l2.73.61V12.76c0-2.34-1.45-3.25-2.89-3.25a10.38,10.38,0,0,0-5.23,1.82V21.9l2.5-.61V23H35.93V21.29L39,21.9V9.36l-3.11.3V8.08H41l.76,2a11.7,11.7,0,0,1,6.3-2.34c2.42,0,4.54,1.44,4.54,5.06ZM85.9,7.93a1.48,1.48,0,0,1,1.66,1.66,2.68,2.68,0,0,1-.38,1.21l-1.66.37v-.83c0-.6-.16-1-.69-1-2.35,0-5.23,5.06-6.36,7.4-2,4.38-2.73,6.19-2.89,6.19h-2.8L79,9c.07-.22,0-.3-.31-.3H77.18V8.3l4.55-.53.22.31-1.74,4h.15C82.41,9.36,84.3,7.93,85.9,7.93ZM0,30.73,2.73,8.08H8a7,7,0,0,1,7.35,7.55c-.15,4.53-2.88,7.62-6.9,7.62A8.46,8.46,0,0,1,4.17,22.2L1.59,30.73ZM71.34,10v.38L63.91,15l7.66,4.53.07.3-1.89,3.48h-.23l-7.43-7.4L61.94,23H58.68L57.92,0h4.7l-.53,14.27L68.46,7.4h.3L71.34,10ZM126.83,23H123l-.3-.3L124,10.12l-4.55,1-.23-.23V7.25l.23-.15L124,8.31l-1.21-5.37.3-.3h3.64l.3.3L125.85,8.3l4.55-1.2.22.15v3.62l-.22.23-4.55-1,1.29,12.53Zm-7.7-9.13-5.94,1.55v9.21c0,3.67-1.14,6.68-4.55,6.68a3.67,3.67,0,0,1-2-.53V28.39H107l1.6,1.81c1.81,0,2-3.17,2-4.73V16l-3,.78-.23-.86,3.23-.84V8.69c.06-3.9,1.52-6.35,4.51-6.35a5.66,5.66,0,0,1,2,.33l0,2.7H117l-1.81-2c-1.36.06-2,1.7-2,4.67v6.38L118.91,13l.22.85Z"/></g></g></svg>