<svg xmlns="http://www.w3.org/2000/svg" width="76.91" height="84" viewBox="0 0 76.91 84">
  <metadata><?xpacket begin="﻿" id="W5M0MpCehiHzreSzNTczkc9d"?>
<x:xmpmeta xmlns:x="adobe:ns:meta/" x:xmptk="Adobe XMP Core 5.6-c138 79.159824, 2016/09/14-01:09:01        ">
   <rdf:RDF xmlns:rdf="http://www.w3.org/1999/02/22-rdf-syntax-ns#">
      <rdf:Description rdf:about=""/>
   </rdf:RDF>
</x:xmpmeta>
                                                                                                    
                                                                                                    
                                                                                                    
                                                                                                    
                                                                                                    
                                                                                                    
                                                                                                    
                                                                                                    
                                                                                                    
                                                                                                    
                                                                                                    
                                                                                                    
                                                                                                    
                                                                                                    
                                                                                                    
                                                                                                    
                                                                                                    
                                                                                                    
                                                                                                    
                                                                                                    
                           
<?xpacket end="w"?></metadata>
<defs>
    <style>
      .cls-1 {
        fill: #3b41c1;
        fill-rule: evenodd;
      }
    </style>
  </defs>
  <path id="_3" data-name="3" class="cls-1" d="M1304.04,2501.85l-8.44-2.54c-17.06-5.15-37.64-26.82-37.79-27.03a0.979,0.979,0,0,0-1.64.39l-4.84,16.14a10.161,10.161,0,0,0-11.72,7.05l-0.7,2.32a10.207,10.207,0,0,0,5.84,12.36l-5.97,19.89a0.973,0.973,0,0,0,.65,1.21,1.032,1.032,0,0,0,.55.03c0.2-.04,21.83-5.36,39.2-3.05-3.47,11.13-5.17,12.26-6.93,13.76a5.154,5.154,0,0,0-1.73,5.78l0.06,0.16a5.769,5.769,0,0,0,1.15,1.36,23.509,23.509,0,0,0,8.92,6.02,3.332,3.332,0,0,0,.51.16,3.764,3.764,0,0,0,4.19-1.78l15.15-20.86A16.053,16.053,0,0,0,1304.04,2501.85Zm-63.28-3.11,0.7-2.32a8.241,8.241,0,0,1,9.26-5.75l-5.36,18.02A8.281,8.281,0,0,1,1240.76,2498.74Zm0.36,30.64,12.04-40.09,4.34-14.48c4.59,4.63,21.5,21.06,36.65,26.09l-8.11,27.04C1269.98,2523.52,1247.41,2527.98,1241.12,2529.38Zm42.65,23.67a1.836,1.836,0,0,1-2.29.89,21.863,21.863,0,0,1-8.26-5.54l-0.09-.09a3.683,3.683,0,0,1-.74-0.88,3.247,3.247,0,0,1,1.08-3.6c1.94-1.67,4.04-3.23,7.67-14.97a41.452,41.452,0,0,1,5.27,1.21l8.44,2.54a15.379,15.379,0,0,0,3.3.62Zm29.09-31.77a14.087,14.087,0,0,1-17.49,9.46l-7.51-2.26,8.11-27.03,7.51,2.26A14.152,14.152,0,0,1,1312.86,2521.28Z" transform="translate(-1238.5 -2471.97)"/>
</svg>
