<svg xmlns="http://www.w3.org/2000/svg" width="79.875" height="60.69" viewBox="0 0 79.875 60.69">
  <metadata><?xpacket begin="﻿" id="W5M0MpCehiHzreSzNTczkc9d"?>
<x:xmpmeta xmlns:x="adobe:ns:meta/" x:xmptk="Adobe XMP Core 5.6-c138 79.159824, 2016/09/14-01:09:01        ">
   <rdf:RDF xmlns:rdf="http://www.w3.org/1999/02/22-rdf-syntax-ns#">
      <rdf:Description rdf:about=""/>
   </rdf:RDF>
</x:xmpmeta>
                                                                                                    
                                                                                                    
                                                                                                    
                                                                                                    
                                                                                                    
                                                                                                    
                                                                                                    
                                                                                                    
                                                                                                    
                                                                                                    
                                                                                                    
                                                                                                    
                                                                                                    
                                                                                                    
                                                                                                    
                                                                                                    
                                                                                                    
                                                                                                    
                                                                                                    
                                                                                                    
                           
<?xpacket end="w"?></metadata>
<defs>
    <style>
      .cls-1 {
        fill: #3b41c1;
        fill-rule: evenodd;
      }
    </style>
  </defs>
  <path id="_1" data-name="1" class="cls-1" d="M399.378,2526.76a7.892,7.892,0,0,0-2.16.34,1.082,1.082,0,0,1-1.243-.53l-8.7-16.49-2.125,1.13,8.775,16.62a1.1,1.1,0,0,1-.194,1.28A8.017,8.017,0,1,0,399.378,2526.76Zm0,13.71a5.645,5.645,0,1,1,5.633-5.64A5.643,5.643,0,0,1,399.378,2540.47Zm28.228-45.37a39.622,39.622,0,0,0-28.228-11.74,40.059,40.059,0,0,0-34.586,60.07,1.21,1.21,0,0,0,1.044.6,1.23,1.23,0,0,0,.593-0.16l8.933-5.18-1.2-2.09-6.9,4a1.056,1.056,0,0,1-.85.1,1.111,1.111,0,0,1-.654-0.55,37.438,37.438,0,0,1-3.786-14.4,1.089,1.089,0,0,1,.289-0.81,1.106,1.106,0,0,1,.786-0.34h5.625v-2.4h-5.64a1.1,1.1,0,0,1-.785-0.34,1.091,1.091,0,0,1-.291-0.81,37.277,37.277,0,0,1,3.841-14.37,1.075,1.075,0,0,1,1.5-.45l4.886,2.82,1.2-2.08-4.905-2.84a1.081,1.081,0,0,1-.51-0.69,1.1,1.1,0,0,1,.152-0.85,37.631,37.631,0,0,1,10.5-10.52,1.06,1.06,0,0,1,1.53.36l2.834,4.92,2.079-1.21-2.822-4.9a1.084,1.084,0,0,1-.1-0.85,1.1,1.1,0,0,1,.551-0.66,37.088,37.088,0,0,1,14.332-3.85,1.076,1.076,0,0,1,1.144,1.08v5.66h2.4v-5.66a1.094,1.094,0,0,1,.34-0.79,1.083,1.083,0,0,1,.8-0.29,37.088,37.088,0,0,1,14.332,3.85,1.088,1.088,0,0,1,.453,1.51l-2.82,4.9,2.084,1.21,2.833-4.92a1.061,1.061,0,0,1,1.531-.36,37.617,37.617,0,0,1,10.5,10.52,1.1,1.1,0,0,1,.152.85,1.081,1.081,0,0,1-.51.69l-4.9,2.84,1.2,2.08,4.886-2.82a1.054,1.054,0,0,1,.849-0.1,1.044,1.044,0,0,1,.654.55,37.277,37.277,0,0,1,3.841,14.37,1.091,1.091,0,0,1-.291.81,1.1,1.1,0,0,1-.785.34h-5.644v2.4H435.7a1.106,1.106,0,0,1,.786.34,1.094,1.094,0,0,1,.29.81,37.457,37.457,0,0,1-3.787,14.4,1.111,1.111,0,0,1-.654.55,1.057,1.057,0,0,1-.85-0.1l-6.9-4-1.2,2.09,8.931,5.17a1.133,1.133,0,0,0,.6.16,1.214,1.214,0,0,0,1.04-.59A40.083,40.083,0,0,0,427.606,2495.1Z" transform="translate(-359.438 -2483.34)"/>
</svg>
