<svg xmlns="http://www.w3.org/2000/svg" width="72.219" height="62.41" viewBox="0 0 72.219 62.41">
  <metadata><?xpacket begin="﻿" id="W5M0MpCehiHzreSzNTczkc9d"?>
<x:xmpmeta xmlns:x="adobe:ns:meta/" x:xmptk="Adobe XMP Core 5.6-c138 79.159824, 2016/09/14-01:09:01        ">
   <rdf:RDF xmlns:rdf="http://www.w3.org/1999/02/22-rdf-syntax-ns#">
      <rdf:Description rdf:about=""/>
   </rdf:RDF>
</x:xmpmeta>
                                                                                                    
                                                                                                    
                                                                                                    
                                                                                                    
                                                                                                    
                                                                                                    
                                                                                                    
                                                                                                    
                                                                                                    
                                                                                                    
                                                                                                    
                                                                                                    
                                                                                                    
                                                                                                    
                                                                                                    
                                                                                                    
                                                                                                    
                                                                                                    
                                                                                                    
                                                                                                    
                           
<?xpacket end="w"?></metadata>
<defs>
    <style>
      .cls-1 {
        fill: #3b41c1;
        fill-rule: evenodd;
      }
    </style>
  </defs>
  <path id="_2" data-name="2" class="cls-1" d="M870.745,2542.46H801.374v-59.52a0.957,0.957,0,1,0-1.913,0v60.48a0.958,0.958,0,0,0,.957.96h70.327A0.96,0.96,0,0,0,870.745,2542.46Zm-65.119-8.31a0.932,0.932,0,0,0,.427.1,0.953,0.953,0,0,0,.744-0.36c0.71-.59,5.736-3.44,10.463-6.05a5.749,5.749,0,1,0,8.163-8.04l4.748-7.59a5.736,5.736,0,0,0,7.939-5.32c0-.01,0-0.02,0-0.02l14.839-2.56a5.743,5.743,0,1,0,9.489-5.96l4.36-6.11a0.959,0.959,0,0,0-1.556-1.12l-4.359,6.11a5.615,5.615,0,0,0-2.518-.59,5.762,5.762,0,0,0-5.742,5.76c0,0.01,0,.01,0,0.02l-14.838,2.56a5.743,5.743,0,1,0-9.234,6.2l-4.766,7.63a5.652,5.652,0,0,0-2.1-.4,5.765,5.765,0,0,0-5.381,7.77c-0.933.51-1.936,1.07-2.94,1.63-7.833,4.39-7.979,4.68-8.164,5.05A0.966,0.966,0,0,0,805.626,2534.15Zm52.738-35.59a3.845,3.845,0,1,1-3.828,3.84A3.843,3.843,0,0,1,858.364,2498.56Zm-26,4.48a3.845,3.845,0,1,1-3.827,3.85A3.845,3.845,0,0,1,832.368,2503.04Zm-10.685,17.29a3.84,3.84,0,1,1-3.828,3.84A3.837,3.837,0,0,1,821.683,2520.33Z" transform="translate(-799.469 -2481.97)"/>
</svg>
