<svg xmlns="http://www.w3.org/2000/svg" width="102" height="37" viewBox="0 0 102 37">
  <metadata><?xpacket begin="﻿" id="W5M0MpCehiHzreSzNTczkc9d"?>
<x:xmpmeta xmlns:x="adobe:ns:meta/" x:xmptk="Adobe XMP Core 5.6-c138 79.159824, 2016/09/14-01:09:01        ">
   <rdf:RDF xmlns:rdf="http://www.w3.org/1999/02/22-rdf-syntax-ns#">
      <rdf:Description rdf:about=""/>
   </rdf:RDF>
</x:xmpmeta>
                                                                                                    
                                                                                                    
                                                                                                    
                                                                                                    
                                                                                                    
                                                                                                    
                                                                                                    
                                                                                                    
                                                                                                    
                                                                                                    
                                                                                                    
                                                                                                    
                                                                                                    
                                                                                                    
                                                                                                    
                                                                                                    
                                                                                                    
                                                                                                    
                                                                                                    
                                                                                                    
                           
<?xpacket end="w"?></metadata>
<defs>
    <style>
      .cls-1 {
        fill-rule: evenodd;
        opacity: 0.75;
      }
    </style>
  </defs>
  <path id="Shape_1_copy" data-name="Shape 1 copy" class="cls-1" d="M454.2,4385.3a2.846,2.846,0,0,0,3.022,2.48,4.445,4.445,0,0,0,2.8-1.06l1.218,1.82a6.489,6.489,0,0,1-4.326,1.48,5.616,5.616,0,0,1-.174-11.23c3.131,0,5.261,2.39,5.261,5.89v0.62h-7.8Zm2.543-4.27a2.54,2.54,0,0,0-2.587,2.37h5.174A2.453,2.453,0,0,0,456.739,4381.03ZM446.478,4383a1.47,1.47,0,0,0-1.565-1.71,2.793,2.793,0,0,0-2.174,1.24v7.22h-2.782V4383a1.47,1.47,0,0,0-1.565-1.71,2.813,2.813,0,0,0-2.175,1.27v7.19h-2.76v-10.69h2.76v1.39a4.576,4.576,0,0,1,3.436-1.66,2.778,2.778,0,0,1,2.912,1.95,4.423,4.423,0,0,1,3.609-1.95c1.935,0,3.086,1.04,3.086,3.23v7.73h-2.782V4383Zm-18.521-8.02h2.76v14.77h-2.76v-14.77Zm-6.782,12.8a4.445,4.445,0,0,0,2.8-1.06l1.217,1.82a6.489,6.489,0,0,1-4.326,1.48,5.616,5.616,0,0,1-.174-11.23c3.131,0,5.261,2.39,5.261,5.89v0.62h-7.8A2.844,2.844,0,0,0,421.175,4387.78Zm2.107-4.38a2.45,2.45,0,0,0-2.586-2.37,2.539,2.539,0,0,0-2.587,2.37h5.173Zm-14.129,4.38a4.443,4.443,0,0,0,2.8-1.06l1.217,1.82a6.488,6.488,0,0,1-4.325,1.48,5.616,5.616,0,0,1-.175-11.23c3.131,0,5.262,2.39,5.262,5.89v0.62h-7.805A2.845,2.845,0,0,0,409.153,4387.78Zm2.109-4.38a2.454,2.454,0,0,0-2.588-2.37,2.54,2.54,0,0,0-2.587,2.37h5.175Zm-9.61,2.37a3.848,3.848,0,0,1-4.217,3.98h-7.869v-14.77h7.63c2.761,0,4.173,1.79,4.173,3.77a3.255,3.255,0,0,1-2.5,3.38A3.58,3.58,0,0,1,401.652,4385.77Zm-5.13-8.09h-3.869v3.21h3.869a1.554,1.554,0,0,0,1.7-1.59A1.576,1.576,0,0,0,396.522,4377.68Zm0.109,5.92h-3.978v3.43h3.978a1.647,1.647,0,0,0,1.869-1.71A1.7,1.7,0,0,0,396.631,4383.6ZM380.583,4401a2.007,2.007,0,0,1-1.469-.66,0.628,0.628,0,0,0-1.046,0,1.961,1.961,0,0,1-2.935,0,0.628,0.628,0,0,0-1.045,0,1.959,1.959,0,0,1-2.933,0,0.626,0.626,0,0,0-1.043,0,1.96,1.96,0,0,1-2.934,0,0.626,0.626,0,0,0-1.043,0,1.96,1.96,0,0,1-2.934,0,0.624,0.624,0,0,0-1.041,0,2,2,0,0,1-1.467.66,0.7,0.7,0,0,1-.693-0.71v-33.46a2.806,2.806,0,0,1,2.775-2.83H378.5a2.807,2.807,0,0,1,2.775,2.83v33.46A0.7,0.7,0,0,1,380.583,4401Zm-0.694-34.17a1.408,1.408,0,0,0-1.387-1.42H362.775a1.407,1.407,0,0,0-1.388,1.42v2.35h18.5v-2.35Zm0,3.77h-18.5v28.54a1.869,1.869,0,0,1,1.293-.5,2,2,0,0,1,1.467.66,0.613,0.613,0,0,0,1.042,0,1.96,1.96,0,0,1,2.934,0,0.615,0.615,0,0,0,1.044,0,1.96,1.96,0,0,1,2.934,0,0.613,0.613,0,0,0,1.042,0,1.96,1.96,0,0,1,2.934,0,0.617,0.617,0,0,0,1.046,0,2.006,2.006,0,0,1,1.468-.66,1.877,1.877,0,0,1,1.3.51V4370.6Zm-2.082,25.92h-3.7a0.705,0.705,0,0,1,0-1.41h3.7A0.705,0.705,0,0,1,377.807,4396.52Zm0-4.95h-2.313a0.694,0.694,0,0,1-.693-0.7,0.7,0.7,0,0,1,.693-0.71h2.313a0.7,0.7,0,0,1,.695.71A0.7,0.7,0,0,1,377.807,4391.57Zm0-2.55h-2.313a0.7,0.7,0,0,1-.693-0.71,0.694,0.694,0,0,1,.693-0.7h2.313a0.7,0.7,0,0,1,.695.7A0.7,0.7,0,0,1,377.807,4389.02Zm0-2.55h-2.313a0.71,0.71,0,0,1,0-1.42h2.313A0.71,0.71,0,0,1,377.807,4386.47Zm0-2.56h-1.849a0.7,0.7,0,0,1-.7-0.7,0.7,0.7,0,0,1,.7-0.71h1.849a0.7,0.7,0,0,1,.695.71A0.7,0.7,0,0,1,377.807,4383.91Zm0-2.55h-1.849a0.7,0.7,0,0,1-.7-0.71,0.7,0.7,0,0,1,.7-0.7h1.849a0.7,0.7,0,0,1,.695.7A0.7,0.7,0,0,1,377.807,4381.36Zm0-2.55h-1.849a0.71,0.71,0,0,1,0-1.42h1.849A0.71,0.71,0,0,1,377.807,4378.81Zm0-2.56H376.42a0.7,0.7,0,0,1-.694-0.7,0.7,0.7,0,0,1,.694-0.71h1.387a0.7,0.7,0,0,1,.695.71A0.7,0.7,0,0,1,377.807,4376.25Zm0-2.82H363.469a0.71,0.71,0,0,1,0-1.42h14.338A0.71,0.71,0,0,1,377.807,4373.43Zm-14.338,1.41h3.238a0.7,0.7,0,0,1,.693.71,0.694,0.694,0,0,1-.693.7h-3.238a0.7,0.7,0,0,1-.694-0.7A0.7,0.7,0,0,1,363.469,4374.84Zm0,2.55h6.013a0.71,0.71,0,0,1,0,1.42h-6.013A0.71,0.71,0,0,1,363.469,4377.39Zm0,2.56h4.163a0.694,0.694,0,0,1,.693.7,0.7,0.7,0,0,1-.693.71h-4.163a0.7,0.7,0,0,1-.694-0.71A0.7,0.7,0,0,1,363.469,4379.95Zm0,2.55h5.087a0.7,0.7,0,0,1,.694.71,0.694,0.694,0,0,1-.694.7h-5.087a0.7,0.7,0,0,1-.694-0.7A0.7,0.7,0,0,1,363.469,4382.5Zm0,2.55h6.475a0.71,0.71,0,0,1,0,1.42h-6.475A0.71,0.71,0,0,1,363.469,4385.05Zm0,2.56h5.087a0.694,0.694,0,0,1,.694.7,0.7,0.7,0,0,1-.694.71h-5.087a0.7,0.7,0,0,1-.694-0.71A0.7,0.7,0,0,1,363.469,4387.61Zm0,2.55h3.7a0.7,0.7,0,0,1,.694.71,0.7,0.7,0,0,1-.694.7h-3.7a0.7,0.7,0,0,1-.694-0.7A0.7,0.7,0,0,1,363.469,4390.16Zm0,4.95h8.325a0.705,0.705,0,0,1,0,1.41h-8.325A0.705,0.705,0,0,1,363.469,4395.11Zm1.85-28.51a0.7,0.7,0,0,1,.694.71,0.694,0.694,0,1,1-1.388,0A0.7,0.7,0,0,1,365.319,4366.6Zm2.775-.01h5.087a0.71,0.71,0,0,1,0,1.42h-5.087A0.71,0.71,0,0,1,368.094,4366.59Z" transform="translate(-360 -4364)"/>
</svg>
