<svg xmlns="http://www.w3.org/2000/svg" width="144" height="144" viewBox="0 0 144 144">
  <metadata><?xpacket begin="﻿" id="W5M0MpCehiHzreSzNTczkc9d"?>
<x:xmpmeta xmlns:x="adobe:ns:meta/" x:xmptk="Adobe XMP Core 5.6-c138 79.159824, 2016/09/14-01:09:01        ">
   <rdf:RDF xmlns:rdf="http://www.w3.org/1999/02/22-rdf-syntax-ns#">
      <rdf:Description rdf:about=""/>
   </rdf:RDF>
</x:xmpmeta>
                                                                                                    
                                                                                                    
                                                                                                    
                                                                                                    
                                                                                                    
                                                                                                    
                                                                                                    
                                                                                                    
                                                                                                    
                                                                                                    
                                                                                                    
                                                                                                    
                                                                                                    
                                                                                                    
                                                                                                    
                                                                                                    
                                                                                                    
                                                                                                    
                                                                                                    
                                                                                                    
                           
<?xpacket end="w"?></metadata>
<defs>
    <style>
      .cls-1 {
        fill: #fff;
        fill-rule: evenodd;
      }
    </style>
  </defs>
  <path id="Shape_12_copy_2" data-name="Shape 12 copy 2" class="cls-1" d="M1140.72,2383.69H1115.9a1.3,1.3,0,0,0-.95.41,1.482,1.482,0,0,0-.4,1.01,1.508,1.508,0,0,0,.4,1.02,1.34,1.34,0,0,0,.95.41h24.82a1.34,1.34,0,0,0,.95-0.41,1.519,1.519,0,0,0,.39-1.02,1.475,1.475,0,0,0-.39-1.01A1.3,1.3,0,0,0,1140.72,2383.69Zm0,9.41H1115.9a1.34,1.34,0,0,0-.95.41,1.527,1.527,0,0,0-.4,1.02,1.482,1.482,0,0,0,.4,1.01,1.31,1.31,0,0,0,.95.42h24.82a1.31,1.31,0,0,0,.95-0.42,1.475,1.475,0,0,0,.39-1.01,1.519,1.519,0,0,0-.39-1.02A1.34,1.34,0,0,0,1140.72,2393.1Zm0,9.61H1115.9a1.3,1.3,0,0,0-.95.41,1.488,1.488,0,0,0,0,2.03,1.349,1.349,0,0,0,.95.42h24.82a1.349,1.349,0,0,0,.95-0.42,1.516,1.516,0,0,0,0-2.03A1.3,1.3,0,0,0,1140.72,2402.71Zm10.12,11.94-0.02-.07-0.09-38.91a1.434,1.434,0,0,0-1.43-1.42h-13.32l-15.59-30.9a5.893,5.893,0,0,0-7.84-2.58l-53.9,26.53a5.733,5.733,0,0,0-2.62,7.73l19.67,38.91a5.878,5.878,0,0,0,7.83,2.58l22.24-10.93v9.3a1.231,1.231,0,0,0,.16.63,1.6,1.6,0,0,0,.46.51l0.07,0.04,5.1,5.07a1.415,1.415,0,0,0,1.01.42,1.45,1.45,0,0,0,1.01-.42l4.26-4.23,4.26,4.22,0.01,0.01a1.389,1.389,0,0,0,1,.39,1.437,1.437,0,0,0,1.02-.39h0l4.21-4.19,4.21,4.19h0.01a1.432,1.432,0,0,0,1.01.42,1.415,1.415,0,0,0,1.01-.42l4.24-4.21,4.24,4.21a1.45,1.45,0,0,0,1.01.42,1.415,1.415,0,0,0,1.01-.42l5.02-4.98,0.09-.06a1.407,1.407,0,0,0,.66-1.21A1.927,1.927,0,0,0,1150.84,2414.65Zm-18.08-40.4h-22.79l18.23-8.97Zm-74.12-.51a2.858,2.858,0,0,1,1.32-3.86l53.89-26.53a2.946,2.946,0,0,1,3.92,1.29l3.26,6.45-59.13,29.1Zm4.57,9.03,59.13-29.1,4.56,9.03-59.13,29.1Zm19.02,31.17a2.946,2.946,0,0,1-3.92-1.29l-9.23-18.27,36.69-18.06v26.05Zm62.49,3.53-0.65.64-4.24-4.21a1.458,1.458,0,0,0-1.01-.42,1.5,1.5,0,0,0-1.01.42l-4.24,4.21-4.19-4.16-0.03-.03a1.413,1.413,0,0,0-1.01-.41,1.456,1.456,0,0,0-1.01.41l-4.21,4.19-4.27-4.23a1.4,1.4,0,0,0-1.01-.39,1.413,1.413,0,0,0-1.01.39l-4.26,4.23-3.94-3.91v-37.09h39.24l0.09,37.14ZM1103,2453a72,72,0,1,1,72-72A72.083,72.083,0,0,1,1103,2453Zm0-141.25a69.25,69.25,0,1,0,69.25,69.25A69.334,69.334,0,0,0,1103,2311.75Z" transform="translate(-1031 -2309)"/>
</svg>
