<svg xmlns="http://www.w3.org/2000/svg" width="144" height="144" viewBox="0 0 144 144">
  <metadata><?xpacket begin="﻿" id="W5M0MpCehiHzreSzNTczkc9d"?>
<x:xmpmeta xmlns:x="adobe:ns:meta/" x:xmptk="Adobe XMP Core 5.6-c138 79.159824, 2016/09/14-01:09:01        ">
   <rdf:RDF xmlns:rdf="http://www.w3.org/1999/02/22-rdf-syntax-ns#">
      <rdf:Description rdf:about=""/>
   </rdf:RDF>
</x:xmpmeta>
                                                                                                    
                                                                                                    
                                                                                                    
                                                                                                    
                                                                                                    
                                                                                                    
                                                                                                    
                                                                                                    
                                                                                                    
                                                                                                    
                                                                                                    
                                                                                                    
                                                                                                    
                                                                                                    
                                                                                                    
                                                                                                    
                                                                                                    
                                                                                                    
                                                                                                    
                                                                                                    
                           
<?xpacket end="w"?></metadata>
<defs>
    <style>
      .cls-1 {
        fill: #fff;
        fill-rule: evenodd;
      }
    </style>
  </defs>
  <path class="cls-1" d="M547.046,2411.06h-8.6a1.28,1.28,0,0,0,0,2.56h8.6A1.28,1.28,0,0,0,547.046,2411.06Zm0-53.5H513.707a1.28,1.28,0,0,0,0,2.56h33.339A1.28,1.28,0,0,0,547.046,2357.56Zm0,18.38h-4.3a1.28,1.28,0,0,0,0,2.56h4.3A1.28,1.28,0,0,0,547.046,2375.94Zm0-11.83H543.82a1.28,1.28,0,0,0,0,2.56h3.226A1.28,1.28,0,0,0,547.046,2364.11Zm0,5.92h-4.3a1.28,1.28,0,0,0,0,2.56h4.3A1.28,1.28,0,0,0,547.046,2370.03Zm0,23.66h-5.378a1.28,1.28,0,0,0,0,2.56h5.378A1.28,1.28,0,0,0,547.046,2393.69Zm0,5.91h-5.378a1.28,1.28,0,0,0,0,2.56h5.378A1.28,1.28,0,0,0,547.046,2399.6Zm0-17.74h-4.3a1.28,1.28,0,0,0,0,2.56h4.3A1.28,1.28,0,0,0,547.046,2381.86Zm0,5.91h-5.378a1.28,1.28,0,0,0,0,2.56h5.378A1.28,1.28,0,0,0,547.046,2387.77Zm-25.81-23.66h-7.529a1.28,1.28,0,0,0,0,2.56h7.529A1.28,1.28,0,0,0,521.236,2364.11Zm11.83,46.95H513.707a1.28,1.28,0,0,0,0,2.56h19.359A1.28,1.28,0,0,0,533.066,2411.06Zm-15.058-66.04a1.285,1.285,0,1,0,1.256,1.28A1.273,1.273,0,0,0,518.008,2345.02Zm18.282-.02H524.462a1.28,1.28,0,0,0,0,2.56H536.29A1.28,1.28,0,0,0,536.29,2345Zm-8.6,25.03H513.707a1.28,1.28,0,0,0,0,2.56h13.981A1.28,1.28,0,0,0,527.688,2370.03Zm27.068-24.84a6.152,6.152,0,0,0-6.1-6.19H512.094a6.152,6.152,0,0,0-6.094,6.19v77.53a1.273,1.273,0,0,0,1.254,1.28,4.273,4.273,0,0,0,3.162-1.43,1.8,1.8,0,0,1,2.915-.01,4.2,4.2,0,0,0,6.325.01,1.8,1.8,0,0,1,2.923,0,4.208,4.208,0,0,0,6.321,0,1.8,1.8,0,0,1,2.925,0,4.213,4.213,0,0,0,6.326,0,1.8,1.8,0,0,1,2.923,0,4.214,4.214,0,0,0,6.327,0,1.886,1.886,0,0,1,1.468-.75,1.834,1.834,0,0,1,1.464.75A4.277,4.277,0,0,0,553.5,2424a1.274,1.274,0,0,0,1.256-1.28v-77.53Zm-2.512,75.66-0.6-.52a4.016,4.016,0,0,0-2.78-1.08,4.283,4.283,0,0,0-3.163,1.43,1.8,1.8,0,0,1-2.93.01,4.2,4.2,0,0,0-6.328,0,1.8,1.8,0,0,1-2.919,0,4.193,4.193,0,0,0-6.325,0,1.8,1.8,0,0,1-2.922,0,4.194,4.194,0,0,0-6.326,0,1.8,1.8,0,0,1-2.919,0,4.246,4.246,0,0,0-3.165-1.44,3.987,3.987,0,0,0-2.769,1.08l-0.6.52v-67.28h43.736v67.28Zm0-69.84H508.508v-5.82a3.614,3.614,0,0,1,3.586-3.63h36.567a3.612,3.612,0,0,1,3.583,3.63v5.82ZM522.31,2399.6h-8.6a1.28,1.28,0,0,0,0,2.56h8.6A1.28,1.28,0,0,0,522.31,2399.6Zm3.225-5.91H513.707a1.28,1.28,0,0,0,0,2.56h11.828A1.28,1.28,0,0,0,525.535,2393.69Zm-2.148-17.75h-9.68a1.28,1.28,0,0,0,0,2.56h9.68A1.28,1.28,0,0,0,523.387,2375.94Zm2.148,5.92H513.707a1.28,1.28,0,0,0,0,2.56h11.828A1.28,1.28,0,0,0,525.535,2381.86Zm3.227,5.91H513.707a1.28,1.28,0,0,0,0,2.56h15.055A1.28,1.28,0,0,0,528.762,2387.77ZM530,2453a72,72,0,1,1,72-72A72.082,72.082,0,0,1,530,2453Zm0-141.25A69.25,69.25,0,1,0,599.246,2381,69.33,69.33,0,0,0,530,2311.75Z" transform="translate(-458 -2309)"/>
</svg>
