<svg xmlns="http://www.w3.org/2000/svg" width="144" height="144" viewBox="0 0 144 144">
  <metadata><?xpacket begin="﻿" id="W5M0MpCehiHzreSzNTczkc9d"?>
<x:xmpmeta xmlns:x="adobe:ns:meta/" x:xmptk="Adobe XMP Core 5.6-c138 79.159824, 2016/09/14-01:09:01        ">
   <rdf:RDF xmlns:rdf="http://www.w3.org/1999/02/22-rdf-syntax-ns#">
      <rdf:Description rdf:about=""/>
   </rdf:RDF>
</x:xmpmeta>
                                                                                                    
                                                                                                    
                                                                                                    
                                                                                                    
                                                                                                    
                                                                                                    
                                                                                                    
                                                                                                    
                                                                                                    
                                                                                                    
                                                                                                    
                                                                                                    
                                                                                                    
                                                                                                    
                                                                                                    
                                                                                                    
                                                                                                    
                                                                                                    
                                                                                                    
                                                                                                    
                           
<?xpacket end="w"?></metadata>
<defs>
    <style>
      .cls-1 {
        fill: #fff;
        fill-rule: evenodd;
      }
    </style>
  </defs>
  <path id="Shape_12_copy" data-name="Shape 12 copy" class="cls-1" d="M817.405,2353.72a14.82,14.82,0,1,0,0,29.64h0A14.82,14.82,0,1,0,817.405,2353.72Zm0,3.17a11.716,11.716,0,0,1,8.295,3.42,11.533,11.533,0,0,1,3.442,8.24,11.73,11.73,0,0,1-23.459,0,11.541,11.541,0,0,1,3.437-8.24A11.7,11.7,0,0,1,817.4,2356.89Zm21.737-8.96a30.915,30.915,0,0,0-43.469,0,30.205,30.205,0,0,0-8.992,21.58c0.011,12.83,7.987,25.62,15.463,36.61a156.965,156.965,0,0,0,11.87,15.03c0.692,0.8,1.316,1.52,1.855,2.16a2.376,2.376,0,0,0,1.74.69,1.4,1.4,0,0,0,1.035-.34c0.525-.62,1.146-1.33,1.833-2.12a147.559,147.559,0,0,0,11.834-14.96c8-11.76,15.813-24.32,15.823-37.07A30.205,30.205,0,0,0,839.139,2347.93Zm-20.271,70.65h0a4.12,4.12,0,0,1-.462.49l-0.093.08-0.291.21-0.775.33-0.584-.38a3.056,3.056,0,0,1-.625-0.56l-0.318-.4a199.98,199.98,0,0,1-16.62-22.72c-6.266-10.28-9.451-19-9.465-25.93a27.316,27.316,0,0,1,8.141-19.49,27.878,27.878,0,0,1,39.254,0,27.306,27.306,0,0,1,8.144,19.49c-0.016,7.38-3.455,16.57-10.221,27.31A209.465,209.465,0,0,1,818.868,2418.58ZM817,2453a72,72,0,1,1,72-72A72.082,72.082,0,0,1,817,2453Zm0-141.25A69.25,69.25,0,1,0,886.246,2381,69.33,69.33,0,0,0,817,2311.75Z" transform="translate(-745 -2309)"/>
</svg>
