<svg xmlns="http://www.w3.org/2000/svg" width="144" height="144" viewBox="0 0 144 144">
  <metadata><?xpacket begin="﻿" id="W5M0MpCehiHzreSzNTczkc9d"?>
<x:xmpmeta xmlns:x="adobe:ns:meta/" x:xmptk="Adobe XMP Core 5.6-c138 79.159824, 2016/09/14-01:09:01        ">
   <rdf:RDF xmlns:rdf="http://www.w3.org/1999/02/22-rdf-syntax-ns#">
      <rdf:Description rdf:about=""/>
   </rdf:RDF>
</x:xmpmeta>
                                                                                                    
                                                                                                    
                                                                                                    
                                                                                                    
                                                                                                    
                                                                                                    
                                                                                                    
                                                                                                    
                                                                                                    
                                                                                                    
                                                                                                    
                                                                                                    
                                                                                                    
                                                                                                    
                                                                                                    
                                                                                                    
                                                                                                    
                                                                                                    
                                                                                                    
                                                                                                    
                           
<?xpacket end="w"?></metadata>
<defs>
    <style>
      .cls-1 {
        fill: #fff;
        fill-rule: evenodd;
      }
    </style>
  </defs>
  <path id="Shape_12_copy_3" data-name="Shape 12 copy 3" class="cls-1" d="M1384.2,2417.79h11.64a1.26,1.26,0,0,0,0-2.52H1384.2A1.26,1.26,0,0,0,1384.2,2417.79ZM1408,2339h-35.97a6.048,6.048,0,0,0-5.99,6.09v12.32a17.18,17.18,0,1,0,0,33.32v27.17a6.057,6.057,0,0,0,5.99,6.1H1408a6.059,6.059,0,0,0,6-6.1v-72.81A6.05,6.05,0,0,0,1408,2339Zm-39.49,6.09a3.549,3.549,0,0,1,3.52-3.57H1408a3.551,3.551,0,0,1,3.53,3.57v5.72h-43.02v-5.72Zm-17.12,39.39a14.787,14.787,0,1,1,10.44,4.31A14.628,14.628,0,0,1,1351.39,2384.48Zm60.14,33.42a3.553,3.553,0,0,1-3.53,3.58h-35.97a3.551,3.551,0,0,1-3.52-3.58v-5.72h43.02v5.72Zm0-8.24h-43.02v-19.75a17.175,17.175,0,0,0,0-31.68v-4.9h43.02v56.33Zm-45.35-45.39a7.165,7.165,0,0,0-2.6-.45h-6.24a0.354,0.354,0,0,0-.35.35v10.1h-2.55a0.354,0.354,0,0,0-.35.35v1.48a0.354,0.354,0,0,0,.35.35h2.55v2.83h-2.55a0.356,0.356,0,0,0-.35.36v1.18a0.356,0.356,0,0,0,.35.36h2.55v2.95a0.354,0.354,0,0,0,.35.35h1.84a0.356,0.356,0,0,0,.36-0.35v-2.95h5.66a0.356,0.356,0,0,0,.35-0.36v-1.18a0.356,0.356,0,0,0-.35-0.36h-5.66v-2.83h4.01a7.5,7.5,0,0,0,2.62-.44,5.846,5.846,0,0,0,2.06-1.33,6.189,6.189,0,0,0,1.77-4.53,6.252,6.252,0,0,0-1.77-4.55A5.589,5.589,0,0,0,1366.18,2364.27Zm0.91,7.61a3.457,3.457,0,0,1-.85,1.3,3.656,3.656,0,0,1-1.4.82,6.359,6.359,0,0,1-1.94.27h-3.36v-8.22h3.36a6.413,6.413,0,0,1,1.95.28,3.441,3.441,0,0,1,2.25,2.1,5.084,5.084,0,0,1,.28,1.72A4.941,4.941,0,0,1,1367.09,2371.88ZM1388,2453a72,72,0,1,1,72-72A72.083,72.083,0,0,1,1388,2453Zm0-141.25a69.25,69.25,0,1,0,69.25,69.25A69.334,69.334,0,0,0,1388,2311.75Z" transform="translate(-1316 -2309)"/>
</svg>
