<svg xmlns="http://www.w3.org/2000/svg" width="141" height="51" viewBox="0 0 141 51">
  <metadata><?xpacket begin="﻿" id="W5M0MpCehiHzreSzNTczkc9d"?>
<x:xmpmeta xmlns:x="adobe:ns:meta/" x:xmptk="Adobe XMP Core 5.6-c138 79.159824, 2016/09/14-01:09:01        ">
   <rdf:RDF xmlns:rdf="http://www.w3.org/1999/02/22-rdf-syntax-ns#">
      <rdf:Description rdf:about=""/>
   </rdf:RDF>
</x:xmpmeta>
                                                                                                    
                                                                                                    
                                                                                                    
                                                                                                    
                                                                                                    
                                                                                                    
                                                                                                    
                                                                                                    
                                                                                                    
                                                                                                    
                                                                                                    
                                                                                                    
                                                                                                    
                                                                                                    
                                                                                                    
                                                                                                    
                                                                                                    
                                                                                                    
                                                                                                    
                                                                                                    
                           
<?xpacket end="w"?></metadata>
<defs>
    <style>
      .cls-1 {
        fill: #fff;
        fill-rule: evenodd;
      }
    </style>
  </defs>
  <path class="cls-1" d="M486.212,68.362a3.93,3.93,0,0,0,4.177,3.419,6.131,6.131,0,0,0,3.876-1.464l1.683,2.5a8.954,8.954,0,0,1-5.979,2.046,7.742,7.742,0,0,1-.242-15.48c4.328,0,7.273,3.3,7.273,8.122v0.855H486.212Zm3.515-5.892a3.511,3.511,0,0,0-3.575,3.267H493.3A3.386,3.386,0,0,0,489.727,62.47Zm-14.184,2.717c0-1.375-.6-2.351-2.163-2.351a3.842,3.842,0,0,0-3,1.709V74.5h-3.846V65.186c0-1.375-.6-2.351-2.164-2.351a3.887,3.887,0,0,0-3.006,1.741V74.5h-3.816V59.752h3.816v1.923a6.322,6.322,0,0,1,4.749-2.291,3.841,3.841,0,0,1,4.026,2.688,6.135,6.135,0,0,1,4.989-2.688c2.674,0,4.267,1.435,4.267,4.458V74.5h-3.847V65.186Zm-25.6-11.053h3.816V74.5H449.94V54.133Zm-9.375,17.648a6.127,6.127,0,0,0,3.876-1.464l1.682,2.5a8.952,8.952,0,0,1-5.979,2.046,7.742,7.742,0,0,1-.241-15.48c4.328,0,7.272,3.3,7.272,8.122v0.855H436.387A3.931,3.931,0,0,0,440.565,71.781Zm2.914-6.045A3.385,3.385,0,0,0,439.9,62.47a3.509,3.509,0,0,0-3.575,3.267h7.151Zm-19.532,6.045a6.124,6.124,0,0,0,3.875-1.464l1.683,2.5a8.954,8.954,0,0,1-5.979,2.046,7.742,7.742,0,0,1-.241-15.48c4.328,0,7.273,3.3,7.273,8.122v0.855H419.769A3.93,3.93,0,0,0,423.947,71.781Zm2.915-6.045a3.387,3.387,0,0,0-3.577-3.267,3.512,3.512,0,0,0-3.576,3.267h7.153ZM413.578,69c0,3.052-2.013,5.5-5.829,5.5H396.871V54.133h10.547c3.817,0,5.769,2.473,5.769,5.191A4.513,4.513,0,0,1,409.732,64,4.917,4.917,0,0,1,413.578,69Zm-7.091-11.146h-5.349v4.428h5.349a2.15,2.15,0,0,0,2.344-2.2A2.173,2.173,0,0,0,406.487,57.858Zm0.15,8.152h-5.5v4.734h5.5a2.275,2.275,0,0,0,2.584-2.352A2.359,2.359,0,0,0,406.637,66.01ZM384.453,90a2.763,2.763,0,0,1-2.03-.908,0.866,0.866,0,0,0-1.447,0,2.719,2.719,0,0,1-4.057,0,0.865,0.865,0,0,0-1.444,0,2.714,2.714,0,0,1-4.055,0,0.864,0.864,0,0,0-1.442,0,2.714,2.714,0,0,1-4.055,0,0.864,0.864,0,0,0-1.442,0,2.714,2.714,0,0,1-4.056,0,0.862,0.862,0,0,0-1.44,0,2.751,2.751,0,0,1-2.026.91A0.965,0.965,0,0,1,356,89.025V42.9a3.872,3.872,0,0,1,3.837-3.9h21.739a3.873,3.873,0,0,1,3.837,3.9V89.025A0.968,0.968,0,0,1,384.453,90Zm-0.96-47.1a1.937,1.937,0,0,0-1.917-1.95H359.837a1.937,1.937,0,0,0-1.919,1.95v3.249h25.575V42.9Zm0,5.2H357.918V87.442a2.586,2.586,0,0,1,1.787-.692,2.745,2.745,0,0,1,2.027.912,0.864,0.864,0,0,0,1.442,0,2.709,2.709,0,0,1,4.055,0,0.865,0.865,0,0,0,1.443,0,2.709,2.709,0,0,1,4.055,0,0.864,0.864,0,0,0,1.442,0,2.711,2.711,0,0,1,4.055,0,0.866,0.866,0,0,0,1.446,0,2.759,2.759,0,0,1,2.03-.91,2.592,2.592,0,0,1,1.793.7V48.094Zm-2.877,35.732H375.5a0.975,0.975,0,0,1,0-1.949h5.114A0.975,0.975,0,0,1,380.616,83.827Zm0-6.821h-3.2a0.975,0.975,0,0,1,0-1.949h3.2A0.975,0.975,0,0,1,380.616,77.005Zm0-3.518h-3.2a0.975,0.975,0,0,1,0-1.949h3.2A0.975,0.975,0,0,1,380.616,73.487Zm0-3.52h-3.2a0.975,0.975,0,0,1,0-1.949h3.2A0.975,0.975,0,0,1,380.616,69.966Zm0-3.517h-2.557a0.975,0.975,0,0,1,0-1.95h2.557A0.975,0.975,0,0,1,380.616,66.449Zm0-3.52h-2.557a0.974,0.974,0,0,1,0-1.948h2.557A0.974,0.974,0,0,1,380.616,62.929Zm0-3.519h-2.557a0.975,0.975,0,0,1,0-1.95h2.557A0.975,0.975,0,0,1,380.616,59.41Zm0-3.519H378.7a0.975,0.975,0,0,1,0-1.95h1.918A0.975,0.975,0,0,1,380.616,55.891Zm0-3.9H360.8a0.975,0.975,0,0,1,0-1.95h19.821A0.975,0.975,0,0,1,380.616,51.993ZM360.8,53.941h4.476a0.975,0.975,0,0,1,0,1.95H360.8A0.975,0.975,0,0,1,360.8,53.941Zm0,3.519h8.312a0.975,0.975,0,0,1,0,1.95H360.8A0.975,0.975,0,0,1,360.8,57.461Zm0,3.52h5.755a0.974,0.974,0,0,1,0,1.948H360.8A0.974,0.974,0,0,1,360.8,60.981Zm0,3.519h7.033a0.975,0.975,0,0,1,0,1.95H360.8A0.975,0.975,0,0,1,360.8,64.5Zm0,3.518h8.951a0.975,0.975,0,0,1,0,1.949H360.8A0.975,0.975,0,0,1,360.8,68.018Zm0,3.52h7.033a0.975,0.975,0,0,1,0,1.949H360.8A0.975,0.975,0,0,1,360.8,71.538Zm0,3.518h5.115a0.975,0.975,0,0,1,0,1.949H360.8A0.975,0.975,0,0,1,360.8,75.056Zm0,6.822H372.3a0.975,0.975,0,0,1,0,1.949H360.8A0.975,0.975,0,0,1,360.8,81.878Zm2.557-39.293a0.975,0.975,0,1,1-.959.974A0.967,0.967,0,0,1,363.352,42.585Zm3.837-.012h7.032a0.975,0.975,0,0,1,0,1.949h-7.032A0.975,0.975,0,0,1,367.189,42.572Z" transform="translate(-356 -39)"/>
</svg>
