<svg xmlns="http://www.w3.org/2000/svg" xmlns:xlink="http://www.w3.org/1999/xlink" width="66" height="59" viewBox="0 0 66 59"><defs><path id="a" d="M470.84 1328.92a12.9 12.9 0 0 1-12.84 12.9 12.89 12.89 0 0 1-12.84-12.9c0-7.11 5.76-12.9 12.84-12.9s12.84 5.79 12.84 12.9zm-2.65 0c0-5.64-4.57-10.22-10.19-10.22a10.21 10.21 0 0 0 0 20.45c5.62 0 10.18-4.6 10.19-10.23zm21.81 4.24c0 8.48-3.28 16.49-9.23 22.56l-1.25 1.28-.86-1.59-.07-.11-.06-.1a19.98 19.98 0 0 1-1.62-3.98c-1.08-3.35-1.8-5.57-7.2-5.57-1.89 0-4.3.3-7.14.9-1.06 2.75-2.64 5.71-4.57 5.71-2.75 0-4.23-3.93-4.77-5.79a27.38 27.38 0 0 0-7.15-1.21c-4.94 0-5.86 2.63-7.13 6.27-.45 1.3-.92 2.64-1.62 3.9l-.87 1.54-1.24-1.26a32.2 32.2 0 0 1 12.29-52.93 31.75 31.75 0 0 1 20.98 0 32.18 32.18 0 0 1 21.51 30.38zm-2.66 0a29.52 29.52 0 0 0-19.73-27.85 29.04 29.04 0 0 0-19.23 0 29.51 29.51 0 0 0-12.58 47.1c.23-.58.43-1.17.65-1.78 1.32-3.78 2.82-8.06 9.63-8.06 2.34 0 5.15.5 8.6 1.54l.74.21.18.75c.51 2.12 1.63 4.27 2.3 4.5.57-.46 1.7-2.58 2.43-4.63l.25-.7.71-.16c3.4-.75 6.15-1.11 8.43-1.11 7.32 0 8.6 3.94 9.72 7.42.22.68.45 1.38.72 2.06a29.33 29.33 0 0 0 7.18-19.29z"/><linearGradient id="b" x1="452" x2="464" y1="1301" y2="1357" gradientUnits="userSpaceOnUse"><stop offset="0" stop-color="#da3e82"/><stop offset="1" stop-color="#4a4fc6"/></linearGradient></defs><g transform="translate(-425 -1299)"><use fill="#db4385" xlink:href="#a"/><use fill="url(#b)" xlink:href="#a"/></g></svg>