<svg xmlns="http://www.w3.org/2000/svg" xmlns:xlink="http://www.w3.org/1999/xlink" width="51" height="70" viewBox="0 0 51 70"><defs><path id="a" d="M464.65 1323.28a11.71 11.71 0 0 1-11.65 11.69 11.72 11.72 0 0 1-11.65-11.68A11.72 11.72 0 0 1 453 1311.6a11.71 11.71 0 0 1 11.65 11.68zm-18.12-6.48a9.18 9.18 0 0 0 6.47 15.67 9.18 9.18 0 0 0 0-18.37c-2.44 0-4.74.96-6.47 2.7zm30.47 7.25c0 10.05-6.11 19.95-12.36 29.22a117.26 117.26 0 0 1-9.24 11.8c-.54.61-1.02 1.17-1.43 1.66-.2.22-.55.27-.81.27-.56 0-1.07-.21-1.36-.55l-1.45-1.7c-2.51-2.91-5.95-6.9-9.27-11.84-5.84-8.66-12.07-18.75-12.08-28.86 0-6.43 2.5-12.47 7.02-17.01A23.82 23.82 0 0 1 453 1300c6.42 0 12.45 2.5 16.98 7.04a23.92 23.92 0 0 1 7.02 17.01zm-10.3 21.67c5.3-8.46 7.98-15.7 8-21.52a21.6 21.6 0 0 0-6.37-15.36 21.53 21.53 0 0 0-15.33-6.37 21.52 21.52 0 0 0-15.33 6.37 21.6 21.6 0 0 0-6.36 15.36c.01 5.46 2.5 12.33 7.4 20.43 4.26 7.07 9.44 13.61 12.98 17.92l.24.31c.14.17.34.35.5.45l.45.3.6-.26.23-.17.07-.06c.16-.14.28-.3.36-.4 3.08-3.75 8.22-10.03 12.57-17z"/><linearGradient id="b" x1="445" x2="461" y1="1300" y2="1367" gradientUnits="userSpaceOnUse"><stop offset="0" stop-color="#da3e82"/><stop offset="1" stop-color="#4a4fc6"/></linearGradient></defs><g transform="translate(-427 -1298)"><use fill="#4b4fc6" xlink:href="#a"/><use fill="url(#b)" xlink:href="#a"/></g></svg>