<?xml version="1.0" encoding="UTF-8"?>
<svg width="25px" height="13px" viewBox="0 0 25 13" version="1.1" xmlns="http://www.w3.org/2000/svg" xmlns:xlink="http://www.w3.org/1999/xlink">
    <!-- Generator: Sketch 52.1 (67048) - http://www.bohemiancoding.com/sketch -->
    <title>Path</title>
    <desc>Created with Sketch.</desc>
    <g id="Page-1" stroke="none" stroke-width="1" fill="none" fill-rule="evenodd">
        <g id="FAQ-Copy-2" transform="translate(-1215.000000, -371.000000)" fill="#FFFFFF">
            <g id="Main-Page">
                <g id="FAQ" transform="translate(75.000000, 317.000000)">
                    <g id="Question">
                        <path d="M1152.97579,66.1240324 L1164.0869,56.1240435 C1164.38449,55.857697 1164.51699,55.4525927 1164.43433,55.0618716 C1164.35166,54.6711505 1164.06644,54.3544242 1163.68648,54.2314244 C1163.30653,54.1084246 1162.8898,54.1979172 1162.59385,54.4660713 L1152.22925,63.7976435 L1141.86467,54.4660713 C1141.56871,54.1979146 1141.15199,54.1084202 1140.77203,54.2314197 C1140.39207,54.3544193 1140.10685,54.6711469 1140.02419,55.0618695 C1139.94152,55.4525922 1140.07403,55.8576977 1140.37161,56.1240435 L1151.48273,66.1240324 C1151.70842,66.3248824 1152.00617,66.4251752 1152.30739,66.4018102 C1152.55495,66.3864093 1152.79024,66.2886268 1152.97579,66.1240324 Z" id="Path"></path>
                    </g>
                </g>
            </g>
        </g>
    </g>
</svg>