<?xml version="1.0" encoding="UTF-8"?>
<svg width="19px" height="13px" viewBox="0 0 19 13" version="1.1" xmlns="http://www.w3.org/2000/svg" xmlns:xlink="http://www.w3.org/1999/xlink">
    <!-- Generator: Sketch 52.1 (67048) - http://www.bohemiancoding.com/sketch -->
    <title>Path</title>
    <desc>Created with Sketch.</desc>
    <g id="Page-1" stroke="none" stroke-width="1" fill="none" fill-rule="evenodd">
        <g id="Wireless-RackKVM" transform="translate(-1133.000000, -617.000000)" fill="#B2B2B2">
            <g id="Content" transform="translate(75.000000, 330.000000)">
                <g id="Testimonials" transform="translate(844.000000, 0.000000)">
                    <g id="slider" transform="translate(118.000000, 268.000000)">
                        <g id="next" transform="translate(77.000000, 0.000000)">
                            <path d="M37.7412199,24.8788715 L32.0871416,19.2572422 C31.7421722,18.9142526 31.1827011,18.9142526 30.8377317,19.2572422 C30.4926915,19.6003022 30.4926915,20.1564218 30.8377317,20.4994818 L34.9836553,24.6216117 L19.8834497,24.6216117 C19.3955735,24.6216117 19,25.0149149 19,25.4999912 C19,25.9849973 19.3955735,26.3783708 19.8834497,26.3783708 L34.9836553,26.3783708 L30.837873,30.5005007 C30.4928329,30.8435606 30.4928329,31.3996803 30.837873,31.7427402 C31.0103224,31.9141296 31.2364855,32 31.462578,32 C31.6886705,32 31.9147629,31.9141296 32.087283,31.7427402 L37.7412199,26.121111 C38.08626,25.7780511 38.08626,25.2219314 37.7412199,24.8788715 Z" id="Path"></path>
                        </g>
                    </g>
                </g>
            </g>
        </g>
    </g>
</svg>