<?xml version="1.0" encoding="UTF-8"?>
<svg width="19px" height="19px" viewBox="0 0 19 19" version="1.1" xmlns="http://www.w3.org/2000/svg" xmlns:xlink="http://www.w3.org/1999/xlink">
    <!-- Generator: Sketch 52.1 (67048) - http://www.bohemiancoding.com/sketch -->
    <title>noun_Download_747989</title>
    <desc>Created with Sketch.</desc>
    <g id="Page-1" stroke="none" stroke-width="1" fill="none" fill-rule="evenodd">
        <g id="Support" transform="translate(-537.000000, -556.000000)" fill="#FFD500" fill-rule="nonzero">
            <g id="Group-5" transform="translate(76.000000, 329.000000)">
                <g id="For-Home-Users-Copy" transform="translate(423.000000, 6.000000)">
                    <g id="noun_Download_747989" transform="translate(38.000000, 221.000000)">
                        <path d="M17.675,18.1 L1.325,18.1 C0.675,18.1 0.15,17.575 0.15,16.925 L0.15,12.25 C0.15,11.6 0.675,11.075 1.325,11.075 C1.975,11.075 2.5,11.6 2.5,12.25 L2.5,15.75 L16.5,15.75 L16.5,12.25 C16.5,11.6 17.025,11.075 17.675,11.075 C18.325,11.075 18.85,11.6 18.85,12.25 L18.85,16.925 C18.825,17.575 18.3,18.1 17.675,18.1 Z M10.68125,11.4 C10.20625,11.875 9.43125,11.875 8.95625,11.4 L5.50625,7.975 C5.03125,7.5 5.03125,6.725 5.50625,6.25 C5.98125,5.775 6.75625,5.775 7.23125,6.25 L8.65625,7.675 L8.65625,1.25 C8.65625,0.6 9.18125,0.075 9.83125,0.075 C10.48125,0.075 11.00625,0.6 11.00625,1.25 L11.00625,7.65 L12.43125,6.25 C12.90625,5.775 13.68125,5.775 14.15625,6.25 C14.63125,6.725 14.63125,7.5 14.15625,7.975 L10.68125,11.4 Z" id="Shape"></path>
                    </g>
                </g>
            </g>
        </g>
    </g>
</svg>