<?xml version="1.0" encoding="UTF-8"?>
<svg width="39px" height="39px" viewBox="0 0 39 39" version="1.1" xmlns="http://www.w3.org/2000/svg" xmlns:xlink="http://www.w3.org/1999/xlink">
    <!-- Generator: Sketch 52.1 (67048) - http://www.bohemiancoding.com/sketch -->
    <title>icon</title>
    <desc>Created with Sketch.</desc>
    <g id="Page-1" stroke="none" stroke-width="1" fill="none" fill-rule="evenodd">
        <g id="Wireless-RackKVM" transform="translate(-143.000000, -945.000000)">
            <g id="Content" transform="translate(75.000000, 330.000000)">
                <g id="Description">
                    <g id="Features" transform="translate(54.000000, 347.000000)">
                        <g id="1-Column" transform="translate(0.000000, 62.000000)">
                            <g id="plug-n-play" transform="translate(0.000000, 192.000000)">
                                <g id="icon">
                                    <rect id="area" fill-rule="nonzero" x="0" y="0" width="66" height="66" rx="10"></rect>
                                    <g id="power-button" transform="translate(14.347826, 14.347826)" fill="#1A1D26">
                                        <path d="M30.5074871,11.7653668 C30.014347,10.9997011 29.2135537,10.5052242 28.3104331,10.40875 C27.4101466,10.3128736 26.5267904,10.6253125 25.8864989,11.2667799 C24.8858242,12.2694837 24.7265904,13.8115014 25.499266,15.0167935 C27.4437088,18.0494158 26.9792084,22.0783899 24.3947724,24.5967323 C21.4713586,27.4455978 16.7143317,27.4455978 13.7909179,24.5967323 C11.2065565,22.0783899 10.7420561,18.0494158 12.6864243,15.0167188 C13.4590999,13.8115014 13.2998661,12.2694837 12.2991915,11.2667799 C11.6590491,10.6253872 10.7756183,10.3128736 9.87533181,10.40875 C8.9722112,10.5052242 8.17141792,10.9997011 7.67827782,11.7653668 C6.02202221,14.3369158 5.2795525,17.4396332 5.58757861,20.5017731 C5.90000509,23.6077038 7.28746504,26.5361549 9.49443851,28.7475136 C11.222368,30.4788927 13.3830257,31.7105639 15.7427443,32.3095109 C15.8045733,32.3249796 15.8661039,32.3324524 15.9267396,32.3324524 C16.2599746,32.3324524 16.5636003,32.1069973 16.6492211,31.768553 C16.7503551,31.3684579 16.5087075,30.9619361 16.1093923,30.8606793 C14.0101161,30.3277921 12.0875261,29.2316033 10.5495584,27.6905571 C6.55155861,23.6847486 5.8712162,17.3279891 8.9319366,12.5755707 C9.17947623,12.1912432 9.5810289,11.9431454 10.0337452,11.8947962 C10.483702,11.8469701 10.9249326,12.0030774 11.2447428,12.3235122 C11.7450428,12.8248641 11.822012,13.6000951 11.4317213,14.2088315 C9.10556488,17.837038 9.66045936,22.6562636 12.751162,25.6681114 C14.4511976,27.3246875 16.7035172,28.2370448 19.0930689,28.2370448 C21.4826206,28.2370448 23.7349402,27.3246875 25.4349758,25.6681114 C28.5256784,22.6562636 29.0806475,17.837038 26.7544165,14.2089063 C26.3642004,13.6001698 26.441095,12.8248641 26.941395,12.323587 C27.2612798,12.0030774 27.702585,11.8468207 28.1523926,11.8948709 C28.6051089,11.9432201 29.0067362,12.1913927 29.2542012,12.5756454 C32.3149216,17.3280639 31.6345792,23.6847486 27.6365794,27.6906318 C26.1076362,29.2226359 24.1973523,30.3156861 22.1121722,30.8516372 C21.7131554,30.9542391 21.4727011,31.3614334 21.5750284,31.7612296 C21.6774303,32.1609511 22.0840546,32.4019497 22.4827731,32.2993478 C24.8266802,31.6968139 26.9735401,30.4686549 28.6913264,28.7475136 C30.8982999,26.5361549 32.2857598,23.6077785 32.5981863,20.5017731 C32.9061378,17.4395584 32.1636681,14.3369158 30.5074871,11.7653668 Z" id="Path"></path>
                                        <path d="M19.1324485,31.2327514 C19.131106,31.2327514 19.129689,31.2327514 19.1282719,31.2327514 L19.0931435,31.2328261 C18.6812238,31.2328261 18.3473176,31.5674592 18.3473176,31.9801087 C18.3473176,32.3927582 18.6812238,32.7273913 19.0931435,32.7273913 L19.1365506,32.7273166 C19.5483956,32.725 19.8805119,32.3885734 19.8781998,31.9758492 C19.8758878,31.5645448 19.542429,31.2327514 19.1324485,31.2327514 Z" id="Path"></path>
                                        <path d="M26.2399458,1.38561141 C23.96816,0.466154891 21.5636173,0 19.0931435,0 C13.9931859,0 9.19849479,1.98993886 5.59227731,5.603125 C1.98605984,9.2164606 0,14.0205163 0,19.1304348 C0,23.1694226 1.23150775,27.0055231 3.56609204,30.2638995 C3.17259429,30.8023166 2.95966099,31.4493139 2.95966099,32.1292663 C2.95966099,32.974966 3.28834647,33.7700747 3.88523095,34.3680503 C4.48211543,34.9660258 5.27559963,35.2953533 6.11965082,35.2953533 C6.96370201,35.2953533 7.75726078,34.9660258 8.3539961,34.3680503 C8.95088058,33.7700747 9.27956606,32.974966 9.27956606,32.1292663 C9.27956606,31.2835666 8.95088058,30.4884579 8.3539961,29.8904823 C7.75711162,29.2925068 6.96370201,28.9631793 6.11965082,28.9631793 C5.62151369,28.9631793 5.14142554,29.0787092 4.70854818,29.2956454 C2.6018883,26.3136141 1.49165183,22.8136413 1.49165183,19.1304348 C1.49165183,9.40597147 9.38763624,1.49456522 19.0931435,1.49456522 C21.3712688,1.49456522 23.5877888,1.92417799 25.6812476,2.77144701 C26.0633342,2.92591033 26.4978524,2.74110734 26.6521637,2.35842391 C26.8064751,1.97574049 26.6218832,1.54022418 26.2399458,1.38561141 Z M4.93997796,30.9474389 C5.25508941,30.631712 5.67401983,30.4578193 6.11957624,30.4578193 C6.56513264,30.4578193 6.98413764,30.631712 7.29924909,30.9474389 C7.61436054,31.2631658 7.78791423,31.6829144 7.78791423,32.129341 C7.78791423,32.5757677 7.61436054,32.9955163 7.29932367,33.3112432 C6.98421222,33.6269701 6.5652818,33.8008628 6.11965082,33.8008628 C5.67401983,33.8008628 5.25508941,33.6269701 4.93997796,33.3112432 C4.62486651,32.9955163 4.45131282,32.5757677 4.45131282,32.129341 C4.45131282,31.6829144 4.62486651,31.263091 4.93997796,30.9474389 Z" id="Shape" fill-rule="nonzero"></path>
                                        <path d="M34.6201949,7.99674592 C35.5216747,6.7591712 35.4154691,5.00940897 34.3011306,3.89281929 C33.0690262,2.65830842 31.0643207,2.65838315 29.8322909,3.89281929 C29.235481,4.49086957 28.9067955,5.28597826 28.9067955,6.13160326 C28.9067955,6.97722826 29.235481,7.77233696 29.8322909,8.37038723 C30.4483431,8.98764266 31.2574896,9.29627038 32.0667107,9.29627038 C32.550528,9.29627038 33.0341215,9.185 33.4766201,8.96432745 C35.5834291,11.9471807 36.6946351,15.4490965 36.6946351,19.1304348 C36.6946351,28.8548981 28.7986507,36.7663043 19.0931435,36.7663043 C16.8264294,36.7663043 14.6204255,36.3409511 12.5362895,35.5020516 C12.1541283,35.347962 11.7197593,35.5339606 11.5661937,35.9169429 C11.4126282,36.2999253 11.5980405,36.7350679 11.9802763,36.8889334 C14.2419934,37.7992731 16.6350504,38.2608696 19.0931435,38.2608696 C24.1931011,38.2608696 28.9877922,36.2709307 32.5940842,32.6577446 C36.2003017,29.044409 38.186287,24.2403533 38.186287,19.1304348 C38.186287,15.0938383 36.9545555,11.2556454 34.6201949,7.99674592 Z M33.246309,7.31358016 C32.5958742,7.96543478 31.5374727,7.96536005 30.8870379,7.31350543 C30.5719264,6.99777853 30.3983727,6.57802989 30.3983727,6.13160326 C30.3983727,5.68517663 30.5719264,5.26535326 30.8870379,4.94970109 C31.212218,4.62381114 31.6394271,4.46090353 32.0667107,4.46090353 C32.4939198,4.46090353 32.9211289,4.62381114 33.246309,4.94970109 C33.8968184,5.60140625 33.8968184,6.661875 33.246309,7.31358016 Z" id="Shape" fill-rule="nonzero"></path>
                                        <path d="M21.3306212,10.1131997 C21.7425409,10.1131997 22.0764472,9.77856658 22.0764472,9.36591712 L22.0764472,7.85902174 C22.0764472,6.21081522 20.7381371,4.8698913 19.0931435,4.8698913 C17.4481498,4.8698913 16.1098398,6.21081522 16.1098398,7.85902174 L16.1098398,16.8980774 C16.1098398,18.546284 17.4481498,19.8872079 19.0931435,19.8872079 C20.7381371,19.8872079 22.0764472,18.546284 22.0764472,16.8980774 L22.0764472,15.5183696 C22.0764472,15.1057201 21.7425409,14.771087 21.3306212,14.771087 C20.9187016,14.771087 20.5847953,15.1057201 20.5847953,15.5183696 L20.5847953,16.8980774 C20.5847953,17.7221807 19.9156403,18.3926427 19.0931435,18.3926427 C18.2706467,18.3926427 17.6014917,17.7221807 17.6014917,16.8980774 L17.6014917,7.85902174 C17.6014917,7.03491848 18.2706467,6.36445652 19.0931435,6.36445652 C19.9156403,6.36445652 20.5847953,7.03491848 20.5847953,7.85902174 L20.5847953,9.36591712 C20.5847953,9.77856658 20.9187016,10.1131997 21.3306212,10.1131997 Z" id="Path"></path>
                                        <path d="M21.8579202,11.8495856 C21.7191965,11.7106658 21.5267735,11.6313791 21.3306212,11.6313791 C21.134469,11.6313791 20.9420459,11.7106658 20.8033223,11.8495856 C20.6645987,11.9893274 20.5847953,12.1821264 20.5847953,12.3786617 C20.5847953,12.5752717 20.6645987,12.7679959 20.8033223,12.9069905 C20.9420459,13.0459851 21.134469,13.1259443 21.3306212,13.1259443 C21.5267735,13.1259443 21.7191965,13.0460598 21.8579202,12.9069905 C21.9966438,12.7679212 22.0764472,12.5752717 22.0764472,12.3786617 C22.0764472,12.1821264 21.9966438,11.9893274 21.8579202,11.8495856 Z" id="Path"></path>
                                    </g>
                                </g>
                            </g>
                        </g>
                    </g>
                </g>
            </g>
        </g>
    </g>
</svg>