<?xml version="1.0" encoding="UTF-8"?>
<svg width="38px" height="32px" viewBox="0 0 38 32" version="1.1" xmlns="http://www.w3.org/2000/svg" xmlns:xlink="http://www.w3.org/1999/xlink">
    <!-- Generator: Sketch 52.1 (67048) - http://www.bohemiancoding.com/sketch -->
    <title>icon</title>
    <desc>Created with Sketch.</desc>
    <g id="Page-1" stroke="none" stroke-width="1" fill="none" fill-rule="evenodd">
        <g id="Wireless-RackKVM" transform="translate(-511.000000, -756.000000)" fill-rule="nonzero">
            <g id="Content" transform="translate(75.000000, 330.000000)">
                <g id="Description">
                    <g id="Features" transform="translate(54.000000, 347.000000)">
                        <g id="2-Column" transform="translate(368.000000, 62.000000)">
                            <g id="easy-to-use">
                                <g id="icon">
                                    <rect id="area" x="0" y="0" width="66" height="66" rx="10"></rect>
                                    <g id="settings-2" transform="translate(14.000000, 17.000000)" fill="#1A1D26">
                                        <path d="M37.0145977,3.44634766 L13.5947227,3.44634766 L13.5947227,2.52032031 C13.5947227,1.16211719 12.4897539,0.0571484375 11.1315508,0.0571484375 L7.30928516,0.0571484375 C5.95108203,0.0571484375 4.84611328,1.16211719 4.84611328,2.52032031 L4.84611328,3.44634766 L0.985253906,3.44634766 C0.441082031,3.44634766 0,3.88757812 0,4.43167578 C0,4.97577344 0.441082031,5.41692969 0.985253906,5.41692969 L4.84596484,5.41692969 L4.84596484,6.34266016 C4.84596484,7.70086328 5.95093359,8.80583203 7.30913672,8.80583203 L11.1314766,8.80583203 C12.4896797,8.80583203 13.5946484,7.70086328 13.5946484,6.34266016 L13.5946484,5.41692969 L37.0145977,5.41692969 C37.5587695,5.41692969 37.9998516,4.97569922 37.9998516,4.43167578 C37.9999258,3.88757812 37.5587695,3.44634766 37.0145977,3.44634766 Z M11.6242148,6.34266016 C11.6242148,6.61430078 11.4031914,6.83532422 11.1315508,6.83532422 L7.30921094,6.83532422 C7.03757031,6.83532422 6.81654688,6.61430078 6.81654688,6.34266016 L6.81654688,2.52032031 C6.81654688,2.24867969 7.03757031,2.02765625 7.30921094,2.02765625 L11.1315508,2.02765625 C11.4031914,2.02765625 11.6242148,2.24867969 11.6242148,2.52032031 L11.6242148,6.34266016 Z" id="Shape"></path>
                                        <path d="M37.0147461,14.420332 L33.1539609,14.420332 L33.1539609,13.4940078 C33.1539609,12.1358047 32.0489922,11.0308359 30.6907891,11.0308359 L26.8684492,11.0308359 C25.5102461,11.0308359 24.4052773,12.1358047 24.4052773,13.4940078 L24.4052773,14.420332 L0.985253906,14.420332 C0.441082031,14.420332 0,14.8614883 0,15.4055859 C0,15.9496836 0.441082031,16.3908398 0.985253906,16.3908398 L24.4052031,16.3908398 L24.4052031,17.3162734 C24.4052031,18.6744766 25.5101719,19.7794453 26.868375,19.7794453 L30.6907148,19.7794453 C32.048918,19.7794453 33.1538867,18.6744766 33.1538867,17.3162734 L33.1538867,16.3908398 L37.0146719,16.3908398 C37.5588437,16.3908398 37.9999258,15.9496094 37.9999258,15.4055859 C38,14.8614883 37.558918,14.420332 37.0147461,14.420332 Z M31.1833789,17.3163477 C31.1833789,17.5879883 30.9623555,17.8090117 30.6907148,17.8090117 L26.868375,17.8090117 C26.5967344,17.8090117 26.3757109,17.5879883 26.3757109,17.3163477 L26.3757109,13.4940078 C26.3757109,13.2223672 26.5967344,13.0013437 26.868375,13.0013437 L30.6907148,13.0013437 C30.9623555,13.0013437 31.1833789,13.2223672 31.1833789,13.4940078 L31.1833789,17.3163477 Z" id="Shape"></path>
                                        <path d="M37.0147461,26.2002578 L20.5164375,26.2002578 L20.5164375,25.2745273 C20.5164375,23.9163242 19.4114688,22.8113555 18.0532656,22.8113555 L14.2309258,22.8113555 C12.8727227,22.8113555 11.7677539,23.9163242 11.7677539,25.2745273 L11.7677539,26.2002578 L0.985253906,26.2002578 C0.441082031,26.2002578 0,26.6414883 0,27.1855117 C0,27.7296094 0.441082031,28.1707656 0.985253906,28.1707656 L11.7676797,28.1707656 L11.7676797,29.096793 C11.7676797,30.4549961 12.8726484,31.5599648 14.2308516,31.5599648 L18.0531914,31.5599648 C19.4113945,31.5599648 20.5163633,30.4549961 20.5163633,29.096793 L20.5163633,28.1707656 L37.0146719,28.1707656 C37.5588438,28.1707656 37.9999258,27.7295352 37.9999258,27.1855117 C38,26.6413398 37.558918,26.2002578 37.0147461,26.2002578 Z M18.5458555,29.0968672 C18.5458555,29.3685078 18.324832,29.5895312 18.0531914,29.5895312 L14.2308516,29.5895312 C13.9592109,29.5895312 13.7381875,29.3685078 13.7381875,29.0968672 L13.7381875,25.2745273 C13.7381875,25.0028867 13.9592109,24.7818633 14.2308516,24.7818633 L18.0531914,24.7818633 C18.324832,24.7818633 18.5458555,25.0028867 18.5458555,25.2745273 L18.5458555,29.0968672 Z" id="Shape"></path>
                                    </g>
                                </g>
                            </g>
                        </g>
                    </g>
                </g>
            </g>
        </g>
    </g>
</svg>