<?xml version="1.0" encoding="UTF-8"?>
<svg width="40px" height="35px" viewBox="0 0 40 35" version="1.1" xmlns="http://www.w3.org/2000/svg" xmlns:xlink="http://www.w3.org/1999/xlink">
    <!-- Generator: Sketch 52.1 (67048) - http://www.bohemiancoding.com/sketch -->
    <title>api</title>
    <desc>Created with Sketch.</desc>
    <g id="Page-1" stroke="none" stroke-width="1" fill="none" fill-rule="evenodd">
        <g id="Wireless-RackKVM" transform="translate(-142.000000, -883.000000)" fill="#000000">
            <g id="Content" transform="translate(75.000000, 330.000000)">
                <g id="Description">
                    <g id="Features" transform="translate(54.000000, 379.000000)">
                        <g id="1-Column" transform="translate(0.000000, 62.000000)">
                            <g id="api" transform="translate(0.000000, 96.000000)">
                                <g id="icon">
                                    <g id="api" transform="translate(13.347826, 16.347826)">
                                        <path d="M35.8248516,0.0325253906 L3.17507227,0.0325253906 C1.42441406,0.0325253906 0,1.45693945 0,3.20767383 L0,6.28753125 C0,6.66572461 0.306515625,6.97239258 0.684861328,6.97239258 C1.06320703,6.97239258 1.36972266,6.66572461 1.36972266,6.28753125 L1.36972266,3.20767383 C1.36972266,2.21218359 2.17958203,1.40232422 3.17507227,1.40232422 L35.8249277,1.40232422 C36.820418,1.40232422 37.6302773,2.21218359 37.6302773,3.20767383 L37.6302773,23.5457168 C37.6302773,23.9239102 37.936793,24.2305781 38.3151387,24.2305781 C38.6934844,24.2305781 39,23.9239863 39,23.5457168 L39,3.20767383 C39,1.45693945 37.5755859,0.0325253906 35.8248516,0.0325253906 Z" id="Path"></path>
                                        <path d="M38.3151387,25.3971504 C37.936793,25.3971504 37.6302773,25.7037422 37.6302773,26.0820117 C37.6302773,27.077502 36.820418,27.8873613 35.8249277,27.8873613 L3.17507227,27.8873613 C2.17958203,27.8874375 1.36972266,27.077502 1.36972266,26.0820117 L1.36972266,8.93557031 C1.36972266,8.55737695 1.06320703,8.25070898 0.684861328,8.25070898 C0.306591797,8.25070898 0,8.55737695 0,8.93557031 L0,26.0820117 C0,27.8327461 1.42441406,29.2571602 3.17507227,29.2571602 L16.2643711,29.2571602 L15.4323457,32.7226758 L12.1948125,32.7226758 C11.816543,32.7226758 11.5099512,33.0292676 11.5099512,33.4075371 C11.5099512,33.7858066 11.8164668,34.0923984 12.1948125,34.0923984 L15.9721758,34.0923984 L23.0274434,34.0923984 L26.8048828,34.0923984 C27.1831523,34.0923984 27.4897441,33.7858066 27.4897441,33.4075371 C27.4897441,33.0292676 27.1832285,32.7226758 26.8048828,32.7226758 L23.5673496,32.7226758 L22.7354004,29.2571602 L35.8246992,29.2571602 C37.5754336,29.2571602 38.9997715,27.8328984 38.9997715,26.0820879 C39,25.7038184 38.6934082,25.3971504 38.3151387,25.3971504 Z M16.8411445,32.7225996 L17.6731699,29.257084 L21.3269824,29.257084 L22.1589316,32.7225996 L16.8411445,32.7225996 Z" id="Shape" fill-rule="nonzero"></path>
                                        <path d="M36.0026367,24.4712813 L2.99736328,24.4712813 C2.61909375,24.4712813 2.31250195,24.777873 2.31250195,25.1561426 C2.31250195,25.5344121 2.61916992,25.8410039 2.99736328,25.8410039 L36.0026367,25.8410039 C36.3809824,25.8410039 36.687498,25.5344121 36.687498,25.1561426 C36.687498,24.777873 36.3809824,24.4712813 36.0026367,24.4712813 Z" id="Path"></path>
                                        <path d="M36.0026367,3.44875781 L2.99736328,3.44875781 C2.61909375,3.44875781 2.31250195,3.75542578 2.31250195,4.13361914 C2.31250195,4.5118125 2.61901758,4.81848047 2.99736328,4.81848047 L36.0026367,4.81848047 C36.3809063,4.81848047 36.687498,4.51188867 36.687498,4.13361914 C36.687498,3.75534961 36.3809824,3.44875781 36.0026367,3.44875781 Z" id="Path"></path>
                                        <path d="M21.0525352,8.75504297 L18.7467363,8.75504297 L18.7467363,8.75511914 C18.3683906,8.75511914 18.061875,9.06171094 18.061875,9.43998047 L18.061875,19.8496289 C18.061875,20.2278223 18.3683906,20.5344902 18.7467363,20.5344902 C19.125082,20.5344902 19.4315977,20.2278223 19.4315977,19.8496289 L19.4315977,17.1993809 L21.0526113,17.1993809 C22.4403105,17.1993809 23.5694062,16.0703613 23.5694062,14.6825859 L23.5694062,11.2717617 C23.5693301,9.8840625 22.4403105,8.75504297 21.0525352,8.75504297 Z M22.1995312,14.6827383 C22.1995312,15.3152695 21.6849902,15.8298105 21.052459,15.8298105 L19.4314453,15.8298105 L19.4314453,10.124918 L21.052459,10.124918 C21.6849902,10.1248418 22.1995312,10.6393828 22.1995312,11.2719141 L22.1995312,14.6827383 Z" id="Shape" fill-rule="nonzero"></path>
                                        <path d="M15.460834,19.6794609 L14.6159355,16.3865508 C14.5219395,16.0203164 14.1491543,15.799418 13.7823105,15.8933379 C13.416,15.9874102 13.1951777,16.3605 13.28925,16.7269629 L13.3609277,17.0064375 L10.8918164,17.0064375 L12.126334,12.1953457 L12.7718145,14.7103887 C12.8658105,15.076623 13.2388242,15.29775 13.6054395,15.2034492 C13.9718262,15.109377 14.1925723,14.7362109 14.0985,14.3698242 L12.789791,9.26973633 C12.7120195,8.96687695 12.4390957,8.75511914 12.1264102,8.75511914 C11.8137246,8.75511914 11.5408008,8.96687695 11.4630293,9.26973633 L8.79183398,19.6793848 C8.69783789,20.0457715 8.91866016,20.4189375 9.28489453,20.5130098 C9.34202344,20.5276348 9.39922852,20.5346426 9.45551953,20.5346426 C9.76081641,20.5346426 10.0390723,20.3291309 10.1184434,20.0197969 L10.540207,18.376084 L13.7122324,18.376084 L14.1339961,20.0197969 C14.2133672,20.3290547 14.4916992,20.5346426 14.7969199,20.5346426 C14.8531348,20.5346426 14.9104922,20.5276348 14.9675449,20.5130098 C15.334084,20.4190137 15.5549063,20.0458477 15.460834,19.6794609 Z" id="Path"></path>
                                        <path d="M29.5446328,19.1647676 L28.3575703,19.1647676 L28.3575703,10.1248418 L29.5446328,10.1248418 C29.9229023,10.1248418 30.2294941,9.81825 30.2294941,9.43998047 C30.2294941,9.06171094 29.9229785,8.75511914 29.5446328,8.75511914 L25.8007852,8.75511914 C25.4225156,8.75511914 25.1159238,9.06171094 25.1159238,9.43998047 C25.1159238,9.81825 25.4224395,10.1248418 25.8007852,10.1248418 L26.9878477,10.1248418 L26.9878477,19.1648438 L25.8007852,19.1648438 C25.4225156,19.1648438 25.1159238,19.4715117 25.1159238,19.8497051 C25.1159238,20.2278984 25.4224395,20.5345664 25.8007852,20.5345664 L29.5446328,20.5345664 C29.9229023,20.5345664 30.2294941,20.2278984 30.2294941,19.8497051 C30.2294941,19.4714355 29.9229785,19.1647676 29.5446328,19.1647676 Z" id="Path"></path>
                                    </g>
                                </g>
                            </g>
                        </g>
                    </g>
                </g>
            </g>
        </g>
    </g>
</svg>