<?xml version="1.0" encoding="UTF-8"?>
<svg width="39px" height="39px" viewBox="0 0 39 39" version="1.1" xmlns="http://www.w3.org/2000/svg" xmlns:xlink="http://www.w3.org/1999/xlink">
    <!-- Generator: Sketch 52.1 (67048) - http://www.bohemiancoding.com/sketch -->
    <title>icon</title>
    <desc>Created with Sketch.</desc>
    <g id="Page-1" stroke="none" stroke-width="1" fill="none" fill-rule="evenodd">
        <g id="Wireless-RackKVM" transform="translate(-511.000000, -849.000000)">
            <g id="Content" transform="translate(75.000000, 330.000000)">
                <g id="Description">
                    <g id="Features" transform="translate(54.000000, 347.000000)">
                        <g id="2-Column" transform="translate(368.000000, 62.000000)">
                            <g id="remote-control" transform="translate(0.000000, 96.000000)">
                                <g id="icon">
                                    <rect id="area" fill-rule="nonzero" x="0" y="0" width="66" height="66" rx="10"></rect>
                                    <g id="remote-control" transform="translate(14.347826, 14.347826)" fill="#1A1D26">
                                        <path d="M21.3256445,28.4311992 C21.1875977,28.2931523 20.996707,28.2137383 20.8008437,28.2137383 C20.6056484,28.2137383 20.4140898,28.2931523 20.276043,28.4311992 C20.1379961,28.5692461 20.058582,28.7607305 20.058582,28.956 C20.058582,29.1512695 20.1379961,29.3427539 20.276043,29.4808008 C20.4140898,29.6188477 20.6055742,29.6982617 20.8008437,29.6982617 C20.9967812,29.6982617 21.1875977,29.6188477 21.3256445,29.4808008 C21.4644336,29.3427539 21.5431055,29.1512695 21.5431055,28.956 C21.5431055,28.7607305 21.4644336,28.5692461 21.3256445,28.4311992 Z" id="Path"></path>
                                        <path d="M31.3913398,16.0142539 L21.9858203,6.60858594 C21.0482148,5.67105469 19.5223516,5.67098047 18.5846719,6.60858594 L2.64805078,22.545207 C-0.882683594,26.0759414 -0.882683594,31.8210664 2.64805078,35.351875 C4.41349219,37.1173164 6.73238281,38 9.05142188,38 C11.3704609,38 13.6893516,37.1173164 15.454793,35.351875 L19.5227227,31.2839453 C19.8126211,30.9941211 19.8126211,30.5240938 19.5227227,30.2341211 C19.2329727,29.9442969 18.7628711,29.9442969 18.4729727,30.2341211 L14.405043,34.3020508 C11.4530664,37.2541016 6.64977734,37.2541016 3.69780078,34.3020508 C0.745824219,31.3500742 0.745824219,26.5468594 3.69780078,23.5948828 L19.6344219,7.65826172 C19.8082422,7.48444141 20.0394336,7.38869922 20.2852461,7.38869922 C20.5311328,7.38869922 20.76225,7.48444141 20.9360703,7.65826172 L30.3416641,17.0638555 C30.5154844,17.2376758 30.6112266,17.4688672 30.6112266,17.7146797 C30.6112266,17.9604922 30.5154844,18.1916836 30.3416641,18.3655039 L22.1246094,26.5824844 C21.8347852,26.8723086 21.8347852,27.3423359 22.1246094,27.6323086 C22.4144336,27.9221328 22.8844609,27.9221328 23.1744336,27.6323086 L31.3913398,19.4154023 C31.8456328,18.9611094 32.09575,18.3571914 32.09575,17.7148281 C32.09575,17.0723906 31.8456328,16.4684727 31.3913398,16.0142539 Z" id="Path"></path>
                                        <path d="M12.6347773,25.3800664 C11.6796563,24.4250195 10.4097734,23.898957 9.05891797,23.898957 C7.70813672,23.898957 6.43817969,24.4250195 5.48305859,25.3801406 C4.5279375,26.3351875 4.001875,27.6051445 4.001875,28.956 C4.001875,30.3068555 4.5279375,31.5767383 5.48305859,32.5317852 C6.43817969,33.4869063 7.70813672,34.0129687 9.05891797,34.0129687 C10.4096992,34.0129687 11.6796563,33.4869062 12.6347773,32.5317852 C13.5898984,31.5766641 14.1159609,30.306707 14.1159609,28.9559258 C14.1159609,27.6051445 13.5899727,26.3352617 12.6347773,25.3800664 Z M9.05891797,25.3834805 C9.76065625,25.3834805 10.4311484,25.5850586 11.0053789,25.9597891 L9.05891797,27.90625 L7.11245703,25.9597891 C7.6866875,25.5850586 8.35717969,25.3834805 9.05891797,25.3834805 Z M5.48632422,28.9560742 C5.48632422,28.2543359 5.68797656,27.5838438 6.06270703,27.0096133 L8.00916797,28.9560742 L6.06270703,30.9024609 C5.68805078,30.3283047 5.48632422,29.6578125 5.48632422,28.9560742 Z M9.05891797,32.5285195 C8.35717969,32.5285195 7.6866875,32.3269414 7.11245703,31.9522109 L9.05891797,30.00575 L11.0053789,31.9522109 C10.4311484,32.3269414 9.76065625,32.5285195 9.05891797,32.5285195 Z M12.0551289,30.9024609 L10.1085937,28.956 L12.0550547,27.0095391 C12.4297852,27.5837695 12.6314375,28.2542617 12.6314375,28.9560742 C12.6314375,29.6578125 12.4298594,30.3283047 12.0551289,30.9024609 Z" id="Shape" fill-rule="nonzero"></path>
                                        <path d="M16.5778711,17.9996797 L14.9616836,16.3834922 C14.7008789,16.1226875 14.3540547,15.979 13.9852617,15.979 C13.6163945,15.979 13.2696445,16.1226875 13.0089141,16.3834922 L11.812582,17.5798242 C11.5517773,17.8406289 11.4080156,18.1874531 11.4080156,18.5562461 C11.4080156,18.9250391 11.5516289,19.2718633 11.8125078,19.532668 L13.4286953,21.1488555 C13.6895,21.4096602 14.0363242,21.5533477 14.4051172,21.5533477 C14.7739102,21.5533477 15.1207344,21.4096602 15.3814648,21.1488555 L16.5778711,19.9524492 C17.1162539,19.4141406 17.1162539,18.5380625 16.5778711,17.9996797 Z M14.4051172,20.0258516 L12.9355117,18.5562461 L13.9852617,17.5064961 L15.4548672,18.9761016 L14.4051172,20.0258516 Z" id="Shape" fill-rule="nonzero"></path>
                                        <path d="M21.616582,23.0383906 L20.0003945,21.4222031 C19.7395898,21.1613984 19.3927656,21.0177109 19.0239727,21.0177109 C18.6551797,21.0177109 18.3083555,21.1613984 18.047625,21.4222031 L16.8512187,22.6185352 C16.3128359,23.1569922 16.3128359,24.0329961 16.8512187,24.5714531 L18.4674062,26.1876406 C18.7365977,26.4567578 19.09025,26.5914648 19.4438281,26.5914648 C19.7974062,26.5914648 20.1509844,26.4569063 20.4201758,26.1876406 L21.616582,24.9912344 C21.8773867,24.7304297 22.0210742,24.3836055 22.0210742,24.0148125 C22.0210742,23.6460195 21.8773125,23.2991953 21.616582,23.0383906 Z M19.4437539,25.0645625 L17.9741484,23.594957 L19.0238984,22.545207 L20.4935039,24.0147383 L19.4437539,25.0645625 Z" id="Shape" fill-rule="nonzero"></path>
                                        <path d="M20.7766484,13.8008281 L19.1604609,12.1844922 C18.6221523,11.6462578 17.7461484,11.6461836 17.2076172,12.1844922 L16.0112109,13.3809727 C15.4729023,13.9193555 15.4729023,14.7953594 16.0112109,15.3338164 L17.6274727,16.9500781 C17.8966641,17.2191953 18.2502422,17.3538281 18.6038203,17.3538281 C18.9573984,17.3538281 19.3110508,17.2192695 19.5802422,16.9500039 L20.7765742,15.7536719 C21.3150313,15.2152891 21.3150313,14.3392109 20.7766484,13.8008281 Z M18.6039687,15.827 L17.1343633,14.3573945 L18.1841875,13.3075703 L19.653793,14.7771758 L18.6039687,15.827 Z" id="Shape" fill-rule="nonzero"></path>
                                        <path d="M25.8154336,18.8393906 L24.1992461,17.2232031 C23.6608633,16.6848945 22.7849336,16.6848203 22.2464023,17.2232031 L21.0499961,18.4196094 C20.7891914,18.6804141 20.6455039,19.0272383 20.6455039,19.3960312 C20.6455039,19.7648242 20.7891914,20.1116484 21.0499961,20.3724531 L22.6661836,21.9886406 C22.935375,22.2577578 23.2890273,22.3924648 23.6426055,22.3924648 C23.9962578,22.3924648 24.3498359,22.2579062 24.6190273,21.9886406 L25.8153594,20.7923086 C26.3538164,20.2538516 26.3538164,19.3778477 25.8154336,18.8393906 Z M23.6426797,20.8656367 L22.1730742,19.3960313 L23.2228242,18.3462812 L24.6924297,19.8158867 L23.6426797,20.8656367 Z" id="Shape" fill-rule="nonzero"></path>
                                        <path d="M27.0508789,6.80459766 C26.6408945,6.80459766 26.3086172,7.136875 26.3086172,7.54685938 C26.3086172,7.95684375 26.6408945,8.28912109 27.0508789,8.28912109 C28.5175898,8.28912109 29.7108789,9.48241016 29.7108789,10.9491211 C29.7108789,11.3591055 30.0431562,11.6913828 30.4531406,11.6913828 C30.863125,11.6913828 31.1954023,11.3590313 31.1954023,10.9491211 C31.1954023,8.66385156 29.3361484,6.80459766 27.0508789,6.80459766 Z" id="Path"></path>
                                        <path d="M27.0508789,3.40226172 C26.6408945,3.40226172 26.3086172,3.73453906 26.3086172,4.14452344 C26.3086172,4.55450781 26.6408945,4.88678516 27.0508789,4.88678516 C30.3936914,4.88678516 33.1132148,7.60630859 33.1132148,10.9491211 C33.1132148,11.3591055 33.4454922,11.6913828 33.8554766,11.6913828 C34.2654609,11.6913828 34.5977383,11.3590313 34.5977383,10.9491211 C34.5976641,6.78782422 31.2121758,3.40226172 27.0508789,3.40226172 Z" id="Path"></path>
                                        <path d="M27.0508789,0 C26.6408945,0 26.3086172,0.332277344 26.3086172,0.742261719 C26.3086172,1.15224609 26.6408945,1.48452344 27.0508789,1.48452344 C32.2697188,1.48452344 36.5154766,5.73028125 36.5154766,10.9491211 C36.5154766,11.3591055 36.8478281,11.6913828 37.2577383,11.6913828 C37.6676484,11.6913828 38,11.3591055 38,10.9491953 C38,4.91179688 33.0882031,0 27.0508789,0 Z" id="Path"></path>
                                    </g>
                                </g>
                            </g>
                        </g>
                    </g>
                </g>
            </g>
        </g>
    </g>
</svg>