<?xml version="1.0" encoding="UTF-8"?>
<svg width="38px" height="38px" viewBox="0 0 38 38" version="1.1" xmlns="http://www.w3.org/2000/svg" xmlns:xlink="http://www.w3.org/1999/xlink">
    <!-- Generator: Sketch 52.1 (67048) - http://www.bohemiancoding.com/sketch -->
    <title>icon</title>
    <desc>Created with Sketch.</desc>
    <g id="Page-1" stroke="none" stroke-width="1" fill="none" fill-rule="evenodd">
        <g id="Wireless-RackKVM" transform="translate(-511.000000, -945.000000)" fill-rule="nonzero">
            <g id="Content" transform="translate(75.000000, 330.000000)">
                <g id="Description">
                    <g id="Features" transform="translate(54.000000, 347.000000)">
                        <g id="2-Column" transform="translate(368.000000, 62.000000)">
                            <g id="automatic-installation" transform="translate(0.000000, 192.000000)">
                                <g id="icon">
                                    <rect id="area" x="0" y="0" width="66" height="66" rx="10"></rect>
                                    <g id="settings" transform="translate(14.000000, 14.000000)" fill="#1A1D26">
                                        <path d="M24.3588148,27.3135556 C23.9600741,27.0739259 23.5508148,26.833037 23.1415556,26.5968889 C23.2377778,25.7768889 23.238,24.9474074 23.142,24.129037 C23.5528148,23.892 23.9618519,23.6512593 24.3586667,23.4126667 C25.0268148,23.0111852 25.3053333,22.1640741 25.0063704,21.4420741 C25.0063704,21.4420741 25.0063704,21.4420741 25.0062963,21.442 L24.1343704,19.336963 C23.8353333,18.6151852 23.0397778,18.2128889 22.283037,18.4014074 C21.8333333,18.5133333 21.3738519,18.6323704 20.916,18.7551852 C20.4048148,18.1083704 19.8182222,17.5219259 19.1705926,17.0104444 C19.2934074,16.5525185 19.4125185,16.0928148 19.5245185,15.642963 C19.713037,14.8865926 19.3108148,14.0907407 18.589037,13.7917037 L16.484,12.9197778 C15.7622222,12.6206667 14.9148889,12.898963 14.5132593,13.5672593 C14.2740741,13.9653333 14.0331111,14.3745926 13.7966667,14.7845185 C12.9768889,14.6882963 12.1475556,14.6880741 11.3288148,14.784 C11.0916296,14.3728148 10.8508148,13.9637037 10.6125185,13.5672593 C10.2107407,12.8991111 9.36362963,12.6207407 8.64177778,12.9197778 L6.53674074,13.7917037 C5.81511111,14.0906667 5.41274074,14.8865926 5.60125926,15.642963 C5.71348148,16.0937037 5.83244444,16.5532593 5.95503704,17.01 C5.3082963,17.521037 4.72177778,18.1077778 4.21037037,18.7554074 C3.75140741,18.6322222 3.2917037,18.5132593 2.84274074,18.4014074 C2.08614815,18.2127407 1.29044444,18.6153333 0.991407407,19.337037 L0.11962963,21.442 C-0.179259259,22.1638519 0.0991851852,23.011037 0.767185185,23.4125185 C1.16533333,23.6517778 1.57459259,23.8926667 1.98444444,24.1291852 C1.8882963,24.9488889 1.88807407,25.7782222 1.984,26.597037 C1.57377778,26.8337037 1.16474074,27.0745185 0.767037037,27.3134815 C0.099037037,27.715037 -0.179407407,28.5621481 0.119555556,29.2840741 L0.991555556,31.3891111 C1.29051852,32.1108148 2.086,32.5132593 2.84288889,32.3246667 C3.29207407,32.2128148 3.75162963,32.0938519 4.20977778,31.9708889 C4.72096296,32.6176296 5.30755556,33.204 5.95518519,33.7155556 C5.83222222,34.174 5.71318519,34.6337037 5.60125926,35.083037 C5.41274074,35.8394074 5.81496296,36.6353333 6.53674074,36.9342963 L8.64185185,37.8062963 C8.83740741,37.8872593 9.04207407,37.9259259 9.24459259,37.9259259 C9.78992593,37.9259259 10.3197037,37.646 10.6128148,37.1588889 C10.8502222,36.7638519 11.091037,36.3547407 11.3294074,35.9417037 C12.149037,36.0377778 12.9785926,36.0379259 13.7972593,35.9421481 C14.0327407,36.3504444 14.2735556,36.7594815 14.5135556,37.158963 C14.9151852,37.8271111 15.7622963,38.1054074 16.4842963,37.8064444 L18.5893333,36.9345185 C19.310963,36.6355556 19.7133333,35.8396296 19.5248148,35.0832593 C19.4134815,34.6363704 19.2945185,34.1768148 19.171037,33.7162222 C19.8176296,33.2051852 20.4042222,32.6185185 20.9157778,31.9708889 C21.3734074,32.0936296 21.8331111,32.2125926 22.2831852,32.3247407 C23.0395556,32.5134074 23.8354815,32.1111111 24.1345185,31.3891852 L25.0064444,29.2840741 C25.3052593,28.5622222 25.0268148,27.715037 24.3588148,27.3135556 Z M22.6011852,30.6543704 C22.1688148,30.5460741 21.7280741,30.4315556 21.2898519,30.3134815 C20.6694074,30.1465926 20.0146667,30.3647407 19.6217778,30.8695556 C19.1702222,31.4495556 18.6476296,31.9722222 18.0685926,32.4231111 C17.5643704,32.8158519 17.3465185,33.4703704 17.5135556,34.0904444 C17.6322963,34.5314815 17.7467407,34.9719259 17.8543704,35.4012593 L15.9194074,36.2026667 C15.6892593,35.8186667 15.4588148,35.4262963 15.2335556,35.0348889 C14.913037,34.4782963 14.2961481,34.1698519 13.662,34.2483704 C12.9337778,34.3388148 12.1945926,34.3387407 11.4654074,34.248 C10.8294815,34.169037 10.2131111,34.4774815 9.89266667,35.0342222 C9.66466667,35.4300741 9.43414815,35.8226667 9.20651852,36.2025926 L7.27155556,35.4011111 C7.37977778,34.9694815 7.4942963,34.5288148 7.61251852,34.0899259 C7.77955556,33.4695556 7.56125926,32.8147407 7.05644444,32.4217778 C6.47644444,31.9702963 5.95385185,31.4477778 5.50288889,30.8688148 C5.1102963,30.3644444 4.45577778,30.1466667 3.83548148,30.3136296 C3.39674074,30.4317778 2.95622222,30.5462963 2.52474074,30.6544444 L1.72325926,28.7195556 C2.10548148,28.4903704 2.498,28.2599259 2.89103704,28.0336296 C3.4477037,27.7131111 3.75644444,27.0963704 3.67762963,26.4621481 C3.58703704,25.7338519 3.58725926,24.9947407 3.67785185,24.2654815 C3.75696296,23.6306667 3.44844444,23.0132593 2.89148148,22.6926667 C2.49859259,22.4664444 2.106,22.2359259 1.72318519,22.0063704 L2.52466667,20.0714815 C2.95577778,20.1795556 3.39637037,20.2940741 3.83592593,20.4123704 C4.45607407,20.5794815 5.11088889,20.3611111 5.50407407,19.8562963 C5.95555556,19.2762963 6.47814815,18.7536296 7.05703704,18.3028148 C7.56133333,17.9101481 7.77918519,17.2555556 7.61214815,16.6352593 C7.49437037,16.1979259 7.37985185,15.7574815 7.27133333,15.3245926 L9.2062963,14.5231852 C9.43474074,14.9043704 9.66525926,15.2968148 9.89214815,15.690963 C10.2127407,16.2476296 10.8301481,16.5568148 11.4637037,16.4774815 C12.1916296,16.3868889 12.9306667,16.3868889 13.6605185,16.4778519 C14.2957037,16.556963 14.9127407,16.2480741 15.2331852,15.6914074 C15.4593333,15.2985185 15.6899259,14.9059259 15.9192593,14.5231852 L17.8542222,15.3245926 C17.7459259,15.7566667 17.6314074,16.1973333 17.5132593,16.6359259 C17.3462222,17.2562222 17.5645185,17.911037 18.0693333,18.304 C18.6492593,18.7554815 19.1719259,19.278 19.6228889,19.856963 C20.0154815,20.3611852 20.6697778,20.579037 21.2903704,20.4120741 C21.7288148,20.294 22.1692593,20.1794815 22.601037,20.0712593 L23.4024444,22.0061481 C23.0207407,22.234963 22.6282963,22.4654074 22.2346667,22.6920741 C21.678,23.0125926 21.3691852,23.6294074 21.4480741,24.2636296 C21.5386667,24.9915556 21.5385185,25.7307407 21.4477037,26.4604444 C21.3687407,27.0953333 21.6774074,27.7125926 22.2341481,28.0331111 C22.6264444,28.258963 23.019037,28.4894815 23.4024444,28.7192593 L22.6011852,30.6543704 Z" id="Shape"></path>
                                        <path d="M17.9082963,23.148963 C17.9082963,23.148963 17.9082963,23.148963 17.9082222,23.1488889 C16.6874815,20.2015556 13.2966667,18.7968889 10.3488889,20.0177037 C7.40162963,21.2385926 5.99688889,24.6297037 7.21777778,27.577037 C7.80911111,29.0048889 8.92125926,30.1168148 10.348963,30.7082963 C11.0628148,31.0039259 11.8128889,31.1517778 12.562963,31.1517778 C13.313037,31.1517778 14.0631111,31.0039259 14.7771111,30.7082963 C17.7243704,29.4874074 19.129037,26.0963704 17.9082963,23.148963 Z M14.1274074,29.1398519 C13.1186667,29.5577037 12.0076296,29.5576296 10.9985926,29.1398519 C9.98985185,28.722 9.20414815,27.9362222 8.78622222,26.9274074 C7.92348148,24.8448889 8.91607407,22.4487407 10.9986667,21.5861481 C11.5086667,21.3748889 12.0372593,21.2748889 12.5577037,21.2748889 C14.1626667,21.2748889 15.6884444,22.226 16.3399259,23.7985926 C17.2025185,25.8811111 16.2099259,28.2771852 14.1274074,29.1398519 Z" id="Shape"></path>
                                        <path d="M36.7817037,7.47674074 C36.4886667,7.43288889 36.1877037,7.3902963 35.8845926,7.34985185 C35.7318519,6.84192593 35.5278519,6.34948148 35.2761481,5.88177778 C35.4616296,5.63918519 35.6444444,5.39614815 35.8211111,5.15740741 C36.2133333,4.62696296 36.1565926,3.87466667 35.6892593,3.40755556 L34.5182963,2.23674074 C34.050963,1.76933333 33.2986667,1.71266667 32.7683704,2.10503704 C32.5288148,2.2822963 32.2858519,2.46503704 32.044,2.64985185 C31.5763704,2.39814815 31.084,2.19414815 30.5759259,2.04133333 C30.5354074,1.73822222 30.492963,1.43725926 30.4491111,1.1442963 C30.3515556,0.492 29.7795556,0 29.1186667,0 L27.4626667,0 C26.8017778,0 26.2297778,0.492 26.1322222,1.14422222 C26.0884444,1.43703704 26.0459259,1.73807407 26.0054074,2.04125926 C25.4973333,2.19407407 25.0048889,2.39807407 24.5373333,2.64977778 C24.2956296,2.46488889 24.0525185,2.28207407 23.813037,2.10496296 C23.2825926,1.71259259 22.5302963,1.76925926 22.0631111,2.23659259 L20.8922963,3.40733333 C20.4248889,3.87459259 20.3680741,4.62696296 20.7604444,5.15748148 C20.936963,5.39614815 21.1197778,5.63925926 21.3051852,5.88177778 C21.0536296,6.34940741 20.8495556,6.84177778 20.6967407,7.34985185 C20.3937037,7.39037037 20.0926667,7.43288889 19.7997037,7.47674074 C19.1473333,7.57437037 18.6553333,8.1462963 18.6553333,8.80725926 L18.6553333,10.4631852 C18.6553333,11.1240741 19.1471852,11.6960741 19.7995556,11.7937037 C20.0925926,11.8375556 20.3935556,11.8801481 20.6966667,11.9205926 C20.8494815,12.4285926 21.0534815,12.920963 21.3051111,13.3886667 C21.1198519,13.631037 20.937037,13.874 20.7601481,14.113037 C20.368,14.6433333 20.4246667,15.3957778 20.892,15.8628148 L22.062963,17.0337778 C22.5302222,17.5011852 23.2825185,17.5577778 23.8128889,17.1654815 C24.0524444,16.9883704 24.2954074,16.8054815 24.5371852,16.6207407 C25.004963,16.8724444 25.4974074,17.0764444 26.0053333,17.2291852 C26.0457037,17.5322222 26.0882963,17.8332593 26.1321481,18.1262963 C26.2297778,18.7785926 26.8017778,19.2705926 27.4626667,19.2705926 L29.1186667,19.2705926 C29.7795556,19.2705926 30.3515556,18.7787407 30.4491111,18.1262222 C30.4928889,17.8331852 30.5354074,17.5322222 30.5759259,17.2291111 C31.0839259,17.0764444 31.5762963,16.8722963 32.044,16.6205926 C32.2857037,16.8054815 32.5288148,16.9882963 32.7682963,17.1654815 C33.2985926,17.5578519 34.051037,17.5011852 34.5182222,17.0338519 L35.6891852,15.863037 C36.1565185,15.3957778 36.2132593,14.6434074 35.8208889,14.112963 C35.6441481,13.874 35.4613333,13.6308889 35.2761481,13.3887407 C35.5277037,12.9211111 35.7317778,12.4288148 35.8845926,11.9206667 C36.1876296,11.8801481 36.4886667,11.8376296 36.7816296,11.7937778 C37.434,11.6961481 37.926,11.1242222 37.926,10.4632593 L37.926,8.80733333 C37.9259259,8.14637037 37.434,7.57437037 36.7817037,7.47674074 Z M36.3131852,10.2327407 C36.0471111,10.2713333 35.7756296,10.3088148 35.5032593,10.3442963 C34.9645185,10.4145926 34.5234815,10.796963 34.3799259,11.3182963 C34.2423704,11.8174815 34.0427407,12.2991852 33.7866667,12.75 C33.5191852,13.2205926 33.5604444,13.802963 33.8917778,14.2338519 C34.0588148,14.451037 34.2245185,14.6696296 34.3857778,14.8856296 L33.541037,15.7304444 C33.3243704,15.5687407 33.1057778,15.4031111 32.889037,15.2364444 C32.4583704,14.904963 31.8758519,14.864 31.4051852,15.1311852 C30.9542963,15.3873333 30.4725926,15.586963 29.9737037,15.7245185 C29.4520741,15.8682222 29.0697037,16.3092593 28.9996296,16.8478519 C28.9641481,17.1202222 28.9267407,17.3917778 28.8880741,17.6578519 L27.6932593,17.6578519 C27.6546667,17.3917778 27.6172593,17.1202963 27.5817037,16.8481481 C27.5114074,16.3093333 27.1291111,15.8682963 26.6076296,15.7245926 C26.1085926,15.5871111 25.627037,15.3874815 25.176,15.1313333 C24.7053333,14.8639259 24.1228148,14.905037 23.6922222,15.2364444 C23.4754074,15.4031852 23.256963,15.5687407 23.0401481,15.7304444 L22.1954074,14.8856296 C22.3566667,14.6694074 22.5222963,14.450963 22.6895556,14.2335556 C23.0206667,13.8028148 23.0619259,13.2204444 22.7945185,12.7498519 C22.5384444,12.299037 22.3388148,11.8172593 22.2012593,11.3182222 C22.0576296,10.7967407 21.6166667,10.4144444 21.0779259,10.3441481 C20.8055556,10.3085926 20.534,10.2712593 20.2679259,10.2325185 L20.2679259,9.03785185 C20.534,8.99925926 20.8054815,8.96177778 21.0778519,8.9262963 C21.6165926,8.856 22.0576296,8.47362963 22.2011852,7.9522963 C22.3387407,7.45318519 22.5382963,6.97148148 22.7944444,6.52059259 C23.0619259,6.05 23.0206667,5.46755556 22.6894815,5.03681481 C22.5221481,4.81933333 22.3565185,4.60081481 22.1954074,4.38496296 L23.0401481,3.54014815 C23.2568148,3.70185185 23.4753333,3.86748148 23.692,4.03407407 C24.1225185,4.36555556 24.704963,4.40688889 25.176,4.13940741 C25.6267407,3.88333333 26.1085185,3.6837037 26.6074815,3.54607407 C27.1291111,3.40237037 27.5114815,2.96133333 27.5815556,2.42274074 C27.6171111,2.15037037 27.6545926,1.87888889 27.6931852,1.61281481 L28.888,1.61281481 C28.9265926,1.87881481 28.964,2.1502963 28.9994815,2.42251852 C29.0697778,2.96133333 29.4521481,3.40237037 29.9735556,3.546 C30.4726667,3.68355556 30.9544444,3.88325926 31.4052593,4.13933333 C31.876,4.40681481 32.4584444,4.36525926 32.888963,4.03414815 C33.1057778,3.86748148 33.3242222,3.70185185 33.541037,3.54014815 L34.3857778,4.38496296 C34.2246667,4.60088889 34.059037,4.81948148 33.8917037,5.03703704 C33.5605185,5.4677037 33.5193333,6.05007407 33.7865926,6.52066667 C34.0426667,6.97162963 34.2422963,7.45340741 34.3798519,7.95237037 C34.5234815,8.47385185 34.9644444,8.85614815 35.5031852,8.92644444 C35.7755556,8.962 36.0471111,8.99940741 36.3131852,9.03807407 L36.3131852,10.2327407 Z" id="Shape"></path>
                                        <path d="M28.2906667,6.19814815 C26.3954815,6.19814815 24.8535556,7.74 24.8535556,9.63525926 C24.8535556,11.5305926 26.3954074,13.0724444 28.2906667,13.0724444 C30.1859259,13.0724444 31.7277778,11.5305926 31.7277778,9.63525926 C31.7277778,7.74 30.1859259,6.19814815 28.2906667,6.19814815 Z M28.2906667,11.5445185 C27.238,11.5445185 26.3814074,10.688 26.3814074,9.63518519 C26.3814074,8.58237037 27.2379259,7.72592593 28.2906667,7.72592593 C29.3434074,7.72592593 30.1998519,8.58244444 30.1999259,9.63518519 C30.1999259,10.688 29.3434074,11.5445185 28.2906667,11.5445185 Z" id="Shape"></path>
                                    </g>
                                </g>
                            </g>
                        </g>
                    </g>
                </g>
            </g>
        </g>
    </g>
</svg>