<?xml version="1.0" encoding="UTF-8"?>
<svg width="39px" height="35px" viewBox="0 0 39 35" version="1.1" xmlns="http://www.w3.org/2000/svg" xmlns:xlink="http://www.w3.org/1999/xlink">
    <!-- Generator: Sketch 52.1 (67048) - http://www.bohemiancoding.com/sketch -->
    <title>icon</title>
    <desc>Created with Sketch.</desc>
    <g id="Page-1" stroke="none" stroke-width="1" fill="none" fill-rule="evenodd">
        <g id="Wireless-RackKVM" transform="translate(-143.000000, -849.000000)" fill-rule="nonzero">
            <g id="Content" transform="translate(75.000000, 330.000000)">
                <g id="Description">
                    <g id="Features" transform="translate(54.000000, 347.000000)">
                        <g id="1-Column" transform="translate(0.000000, 62.000000)">
                            <g id="parental-control" transform="translate(0.000000, 96.000000)">
                                <g id="icon">
                                    <rect id="area" x="0" y="0" width="66" height="66" rx="10"></rect>
                                    <g id="family" transform="translate(14.347826, 14.347826)" fill="#1A1D26">
                                        <path d="M32.2478719,17.2481046 C32.2419798,17.2466101 32.2360878,17.2451902 32.2301958,17.2438451 L31.1126502,16.994178 L32.1151148,16.419966 C32.1289872,16.4120448 32.1426358,16.4036005 32.1559115,16.3947826 C33.0347928,15.813322 33.612435,14.7723573 33.7011137,13.6101087 C33.7026053,13.5911277 33.7032765,13.5721467 33.7032765,13.553091 L33.7032765,11.4350679 C34.0151064,10.8617527 34.8641546,9.06618207 34.8641546,6.51002717 C34.8641546,3.32047554 32.2967235,0.0214470109 28.0003187,0.0214470109 C26.570645,0.0214470109 25.3774727,0.3815625 24.3674752,1.12040082 C23.1598339,0.793315217 21.8283855,1.40115489 20.7206102,2.81546196 C19.6034376,4.24150136 19.3524672,5.85189538 19.4429358,7.25125679 C18.3614137,3.80875 15.1460836,1.30512908 11.35781,1.30512908 L10.9716213,1.30512908 C9.65904229,1.30512908 8.40053564,1.59783967 7.23100602,2.17519022 C6.86159844,2.35775136 6.70959912,2.80567255 6.89165523,3.17595109 C7.07371133,3.54622962 7.52083397,3.69845109 7.89031613,3.5160394 C8.85302822,3.04084239 9.88972625,2.79984375 10.9716959,2.79984375 L11.3578846,2.79984375 C15.2079871,2.79984375 18.3402322,5.93820652 18.3402322,9.79575408 L18.3402322,12.7463995 C18.3402322,13.452731 18.1924841,14.1309647 17.9045207,14.7659307 C17.4137673,14.8918478 16.9538164,15.0948098 16.5366014,15.359572 C16.7478193,14.9567867 16.8814713,14.4999728 16.9181659,14.0190217 C16.9196576,14.0000408 16.9203288,13.9810598 16.9203288,13.9620041 L16.9203288,9.14786005 C16.9203288,8.86643342 16.7625121,8.60884511 16.5120637,8.48150815 C16.26169,8.35409647 15.9610475,8.37853261 15.7342419,8.54465353 C15.0944724,9.01342391 14.3339537,9.26122283 13.5348758,9.26122283 C12.0034715,9.26122283 10.6074345,8.29782609 10.061117,6.86394022 C9.9614747,6.6023913 9.72430206,6.41863451 9.44670565,6.38777174 C9.16873633,6.35653533 8.89740486,6.48394701 8.74294432,6.71724864 C8.15881346,7.59911685 7.17797779,8.12856658 6.11905416,8.13342391 C5.70847699,8.13529212 5.37665904,8.46932745 5.37665904,8.88070652 L5.37665904,13.9620041 C5.37665904,13.9809851 5.37740486,14.0000408 5.37882193,14.018947 C5.45623866,15.0333832 5.96735317,15.946712 6.74621917,16.462038 C6.75927112,16.4706318 6.77262141,16.4789266 6.78627002,16.4866984 L7.87636918,17.1129959 L7.87636918,17.5321467 L7.61935757,17.4790149 C5.48114925,16.9110054 3.98934825,14.967697 3.98934825,12.7463247 L3.98934825,9.79567935 C3.98934825,8.76084239 4.20929231,7.76501359 4.64306467,6.83576766 C4.81758793,6.46190217 4.65656412,6.01711957 4.28342741,5.84225543 C3.91036529,5.66746603 3.46637512,5.82872962 3.29192643,6.20259511 C2.76492584,7.33151495 2.497771,8.54039402 2.497771,9.79567935 L2.497771,12.7463247 C2.497771,14.6809647 3.3657632,16.4532948 4.77239088,17.6393818 C1.91140266,18.8503533 0,21.6686549 0,24.8649321 L0,33.6062704 C0,34.0178736 0.332190864,34.3516101 0.742618866,34.3534035 C0.742618866,34.3534035 0.742693449,34.3534783 0.742693449,34.353553 L15.428677,34.353553 C15.8405967,34.353553 16.1745029,34.0189198 16.1745029,33.6062704 C16.1745029,33.1936209 15.8405967,32.8589878 15.428677,32.8589878 L12.9373947,32.8589878 L12.9373947,28.9051902 C12.9373947,27.0877242 14.16219,25.5120041 15.9175659,25.0690897 L17.4171235,24.7492527 C17.939127,24.9448913 18.5037918,25.0525747 19.0932181,25.0525747 C19.6745148,25.0525747 20.2318705,24.9482541 20.7478329,24.7577717 L22.2717044,25.069837 C24.0255886,25.5137228 25.2490414,27.0887704 25.2490414,28.9051902 L25.2490414,32.8589878 L22.5947216,32.8589878 C22.1828019,32.8589878 21.8488957,33.1936209 21.8488957,33.6062704 C21.8488957,34.0189198 22.1828019,34.353553 22.5947216,34.353553 L37.4404611,34.353553 C37.8523807,34.353553 38.186287,34.0189198 38.186287,33.6062704 L38.186287,24.8657541 C38.186287,21.2517459 35.7443038,18.119212 32.2478719,17.2481046 Z M7.5511145,15.2033899 C7.1753674,14.9455027 6.91589457,14.4620109 6.86831087,13.9312908 L6.86831087,9.56536685 C7.74323926,9.42054348 8.55432494,9.0297894 9.20990592,8.44227582 C10.1650852,9.86031929 11.7870328,10.7558628 13.5349504,10.7558628 C14.1922468,10.7558628 14.831345,10.6357745 15.4287516,10.4030707 L15.4287516,13.9312908 C15.3810187,14.4655231 15.1251259,14.9488655 14.7552708,15.2032405 L11.7547385,16.921841 C11.7407916,16.9297622 11.7272176,16.9382065 11.7138673,16.9470245 C11.3547521,17.1848098 10.9426087,17.1848845 10.5831952,16.9470245 C10.5701432,16.9384307 10.5567929,16.9301359 10.5431443,16.9223641 L7.5511145,15.2033899 Z M15.1437715,16.7021399 C14.8053157,17.1946739 14.5568811,17.7532677 14.4206187,18.3543818 L14.4206187,17.1163587 L15.1437715,16.7021399 Z M12.9289669,17.9707269 L12.9289669,19.7431318 C11.8951776,20.5841236 10.4018849,20.5841236 9.3680956,19.7431318 L9.3680956,17.9700543 L9.7824019,18.2080639 C10.2049123,18.4818682 10.6767218,18.6188451 11.1484566,18.6188451 C11.620117,18.6188451 12.0917773,18.4820177 12.5141385,18.208288 L12.9289669,17.9707269 Z M15.5940266,23.6098709 C15.5857479,23.6118139 15.5775439,23.6136821 15.5693398,23.6157745 C13.1414527,24.220625 11.4457429,26.3957405 11.4457429,28.9051902 L11.4457429,32.8589878 L5.80618018,32.8589878 L5.80618018,28.0280299 C5.80618018,27.6153804 5.47227392,27.2807473 5.06035427,27.2807473 C4.64843461,27.2807473 4.31452835,27.6153804 4.31452835,28.0280299 L4.31452835,32.8589878 L1.49165183,32.8589878 L1.49165183,24.8649321 C1.49165183,21.9398437 3.46756844,19.4046875 6.29678447,18.6997011 C6.34481566,18.6877446 6.39046021,18.6711549 6.43364353,18.6509035 C6.69997796,18.7612772 6.97570981,18.8554348 7.26068989,18.9299389 C7.27314518,18.9332269 7.28574964,18.9361413 7.2983541,18.9387568 L7.86630053,19.0561549 C7.86965675,19.0568274 7.87301297,19.0570516 7.87644377,19.0577242 L7.87644377,20.0741033 C7.87644377,20.2722826 7.95505382,20.4623913 8.09489618,20.6025068 C8.93678447,21.4459647 10.0426206,21.867731 11.1485312,21.867731 C12.2544419,21.867731 13.360278,21.4459647 14.2021663,20.6025068 C14.2421426,20.5624524 14.2765251,20.5179144 14.3060598,20.4706861 C14.3595356,21.6833016 14.8652801,22.7797894 15.6581676,23.5961957 L15.5940266,23.6098709 Z M21.8940181,3.73828125 C22.6792982,2.7357269 23.5320756,2.32442255 24.1754996,2.63805707 C24.4423561,2.7682337 24.7608984,2.72735734 24.9865107,2.53425951 C25.496954,2.09709918 26.3647224,1.51608696 28.0003933,1.51608696 C31.3630986,1.51608696 33.3725773,4.05527853 33.3725773,6.5101019 C33.3725773,7.61099864 33.1886567,8.54951087 32.9752759,9.26794837 C32.4306738,8.42755435 31.4025528,7.45063179 29.5667023,7.45063179 C28.0970523,7.45063179 27.0030748,6.97536005 26.1238952,5.9547962 C25.9809204,5.78875 25.7741029,5.69578804 25.5593796,5.69578804 C25.5167929,5.69578804 25.4738334,5.69944973 25.431023,5.70692255 C25.1726689,5.75205842 24.956976,5.92991168 24.8630019,6.17531929 C24.7467277,6.47894022 24.0592254,6.81447011 23.5572845,7.05935462 C23.0915162,7.28667799 22.6515535,7.50137228 22.3238376,7.79169158 C21.8797729,8.18491168 21.5269972,8.55264946 21.2505941,8.87517663 C20.86806,7.55211277 20.5774116,5.41914402 21.8940181,3.73828125 Z M19.8178625,9.31398098 C20.0124485,9.97472826 20.2272464,10.4634511 20.3295737,10.6800136 L20.3295737,13.5531658 C20.3295737,13.5722215 20.3303195,13.5912024 20.3317366,13.6101834 C20.3657462,14.055788 20.4735181,14.4836821 20.6428952,14.8754076 C20.2939978,14.7555435 19.9273498,14.6744633 19.5476498,14.6384443 C19.73612,14.030231 19.8318095,13.3971332 19.8318095,12.7463995 L19.8318095,9.79575408 C19.8318095,9.63404212 19.8268124,9.47345109 19.8178625,9.31398098 Z M19.0931435,16.1108899 C20.6306636,16.1108899 21.9259395,17.1695652 22.2910959,18.5976223 C22.2505975,18.6157812 22.2109196,18.6372283 22.1730316,18.6632337 C21.7678244,18.941447 21.28617,19.0884375 20.7801271,19.0884375 C19.8123434,19.0884375 18.9342826,18.528125 18.5952301,17.6941576 C18.4925299,17.4414266 18.2604288,17.2649185 17.9898432,17.2336821 C17.7191084,17.2024457 17.453296,17.3215625 17.2958522,17.544178 C16.9928977,17.9728193 16.5128096,18.2560394 15.9746962,18.3358492 C16.4231613,17.042303 17.6512382,16.1108899 19.0931435,16.1108899 Z M22.3940944,20.257038 C22.3940944,22.0771943 20.9133316,23.5580095 19.0932181,23.5580095 C17.2731045,23.5580095 15.7922671,22.077269 15.7922671,20.257038 L15.7922671,19.8515625 C16.5148233,19.8256318 17.2006848,19.5847079 17.7603526,19.1733288 C18.4745555,20.043091 19.5885211,20.5830027 20.7802017,20.5830027 C21.3448665,20.5830027 21.8922282,20.4667255 22.3940944,20.2436617 L22.3940944,20.257038 Z M21.8212255,13.5227514 L21.8212255,10.6071535 C22.0025358,10.3136209 22.4513738,9.67342391 23.3117586,8.91164402 C23.4874006,8.75605978 23.8550182,8.57671196 24.2104789,8.40311821 C24.6921332,8.1680231 25.2122722,7.91424592 25.6225511,7.56548913 C26.6855022,8.49256793 27.9839105,8.94527174 29.5667023,8.94527174 C30.5203153,8.94527174 31.2247479,9.31502717 31.7202,10.0756861 C32.0505263,10.5828668 32.1771676,11.1084307 32.2116993,11.2784375 L32.2116993,13.5228261 C32.1524061,14.2083832 31.8328197,14.8080027 31.3519858,15.1355367 L27.8003627,17.1699389 C27.7864158,17.1778601 27.7728418,17.1863043 27.7594915,17.1951223 C27.2941707,17.5030774 26.738605,17.5030774 26.2732842,17.1951223 C26.2602322,17.1865285 26.2468819,17.1782337 26.2332333,17.170462 L22.6919027,15.1358356 C22.2112179,14.8083016 21.8797729,14.1942595 21.8212255,13.5227514 Z M25.2891669,18.3507948 L25.4724163,18.4560122 C25.9497449,18.7661345 26.4831596,18.9213451 27.0164997,18.9213451 C27.5496907,18.9213451 28.082807,18.7663587 28.5601356,18.4563111 L28.8500381,18.2902649 L28.8500381,19.7431318 C27.8162488,20.5841236 26.3229562,20.5841236 25.2891669,19.7431318 L25.2891669,18.3507948 Z M23.7974405,17.4936617 L23.7974405,18.5034647 C23.7115213,18.0592052 23.5640715,17.6369158 23.3647868,17.2451155 L23.7974405,17.4936617 Z M36.6946351,32.8589878 L33.1718756,32.8589878 L33.1718756,28.0280299 C33.1718756,27.6153804 32.8379693,27.2807473 32.4260497,27.2807473 C32.01413,27.2807473 31.6802237,27.6153804 31.6802237,28.0280299 L31.6802237,32.8589878 L26.7406187,32.8589878 L26.7406187,28.9051902 C26.7406187,26.3957405 25.0449089,24.2205503 22.6169472,23.6157745 C22.606804,23.6132337 22.5965862,23.6109171 22.5862938,23.60875 L22.5276718,23.5967187 C23.3321943,22.7685054 23.8405492,21.651841 23.8815696,20.4182269 C23.9164743,20.4855571 23.9612984,20.5479552 24.0158183,20.6025815 C24.8577812,21.4461889 25.9633935,21.8678804 27.0693788,21.8678804 C28.1751403,21.8678804 29.2812001,21.4459647 30.1230138,20.6025815 C30.2628562,20.462466 30.3414662,20.2723573 30.3414662,20.074178 L30.3414662,18.3532609 L31.8963641,18.7005978 C34.721851,19.4087976 36.6946351,21.9426834 36.6946351,24.8657541 L36.6946351,32.8589878 Z" id="Shape"></path>
                                    </g>
                                </g>
                            </g>
                        </g>
                    </g>
                </g>
            </g>
        </g>
    </g>
</svg>