<?xml version="1.0" encoding="UTF-8"?>
<svg width="39px" height="39px" viewBox="0 0 39 39" version="1.1" xmlns="http://www.w3.org/2000/svg" xmlns:xlink="http://www.w3.org/1999/xlink">
    <!-- Generator: Sketch 52.1 (67048) - http://www.bohemiancoding.com/sketch -->
    <title>icon</title>
    <desc>Created with Sketch.</desc>
    <g id="Page-1" stroke="none" stroke-width="1" fill="none" fill-rule="evenodd">
        <g id="Wireless-RackKVM" transform="translate(-142.000000, -754.000000)" fill="#1A1D26">
            <g id="Content" transform="translate(75.000000, 330.000000)">
                <g id="Description">
                    <g id="Features" transform="translate(54.000000, 347.000000)">
                        <g id="1-Column" transform="translate(0.000000, 62.000000)">
                            <g id="cost-effective">
                                <g id="icon">
                                    <g id="money" transform="translate(13.046512, 15.348837)">
                                        <path d="M25.5779546,24.6245906 C24.670563,24.6245906 23.9323677,23.9780927 23.9323677,23.1834801 C23.9323677,22.3887918 24.670563,21.7422939 25.5779546,21.7422939 C26.4853461,21.7422939 27.2235414,22.3887918 27.2235414,23.1834801 C27.2235414,23.6014105 27.5584931,23.9403261 27.9715354,23.9403261 C28.3845777,23.9403261 28.7195294,23.6014105 28.7195294,23.1834801 C28.7195294,21.7965598 27.6982184,20.6304114 26.3259486,20.3138984 L26.3259486,19.9202628 C26.3259486,19.5023325 25.9909969,19.1634168 25.5779546,19.1634168 C25.1649123,19.1634168 24.8299606,19.5023325 24.8299606,19.9202628 L24.8299606,20.3138984 C23.4576907,20.6304114 22.4363797,21.7965598 22.4363797,23.1834801 C22.4363797,24.8127425 23.8456752,26.1382826 25.5779546,26.1382826 C26.4853461,26.1382826 27.2235414,26.7847805 27.2235414,27.5794688 C27.2235414,28.3741571 26.4853461,29.020655 25.5779546,29.020655 C24.670563,29.020655 23.9323677,28.3741571 23.9323677,27.5794688 C23.9323677,27.1615385 23.597416,26.8226228 23.1843737,26.8226228 C22.7713314,26.8226228 22.4363797,27.1615385 22.4363797,27.5794688 C22.4363797,28.9663892 23.4576907,30.1325375 24.8299606,30.4490505 L24.8299606,30.776008 C24.8299606,31.1939384 25.1649123,31.532854 25.5779546,31.532854 C25.9909969,31.532854 26.3259486,31.1939384 26.3259486,30.776008 L26.3259486,30.4490505 C27.6982184,30.1325375 28.7195294,28.9663892 28.7195294,27.5794688 C28.7195294,25.9501307 27.3102339,24.6245906 25.5779546,24.6245906 Z" id="Path"></path>
                                        <path d="M33.7705834,20.1227191 C32.7934789,18.5821591 31.4168707,17.3494083 29.7896097,16.5578987 C29.4171835,16.3767098 28.970257,16.5353447 28.7913369,16.9121027 C28.6123419,17.2888606 28.7690466,17.7410004 29.1413981,17.9221137 C31.9771182,19.3013898 33.8093295,22.2484725 33.8093295,25.4301018 C33.8093295,26.7915164 33.477669,28.1416541 32.8503264,29.3347461 C32.6562967,29.7037085 32.7946008,30.1620545 33.1593227,30.3583803 C33.2712226,30.4186253 33.3915001,30.4472341 33.5099823,30.4472341 C33.7776146,30.4472341 34.0364953,30.3014655 34.1709846,30.0457273 C34.9130695,28.6346635 35.3053176,27.038551 35.3053176,25.4301018 C35.3053176,23.5410142 34.7746158,21.7057383 33.7705834,20.1227191 Z" id="Path"></path>
                                        <path d="M26.7537264,15.5911793 L26.7033864,15.5911036 C26.2903441,15.5911036 25.9553924,15.9299436 25.9553924,16.3479496 C25.9553924,16.7659557 26.2903441,17.1047957 26.7033864,17.1047957 L26.7466952,17.1048713 C26.747892,17.1048713 26.749014,17.1048713 26.7502856,17.1048713 C27.1617571,17.1048713 27.49626,16.7683776 27.4982048,16.3515825 C27.5000748,15.9335764 27.1667687,15.5931471 26.7537264,15.5911793 Z" id="Path"></path>
                                        <path d="M22.0214674,32.93809 C19.1858221,31.5587381 17.3536108,28.6116554 17.3536108,25.4301018 C17.3536108,24.0686872 17.6852713,22.7185496 18.3126139,21.5254575 C18.5066435,21.1564951 18.3683395,20.6981492 18.0036176,20.5018233 C17.6390453,20.3054975 17.1859105,20.4454383 16.9919557,20.8144764 C16.2498708,22.2256158 15.8576227,23.8216527 15.8576227,25.4301018 C15.8576227,27.3191895 16.3883245,29.1543897 17.3923569,30.7374845 C18.3694614,32.2780446 19.7460696,33.5107954 21.3733306,34.3023806 C21.4778254,34.3532407 21.5882293,34.3772327 21.6969128,34.3772327 C21.9754658,34.3772327 22.2427989,34.2191276 22.3716034,33.9481767 C22.5504488,33.5714187 22.3938188,33.1192032 22.0214674,32.93809 Z" id="Path"></path>
                                        <path d="M24.4595539,33.755408 L24.4162451,33.7552566 C24.001258,33.7544998 23.6667551,34.0904637 23.6648851,34.5085455 C23.6629403,34.9265515 23.996396,35.2669809 24.4094383,35.2689487 L24.4595539,35.2691 C24.8725962,35.2691 25.2075479,34.9301844 25.2075479,34.512254 C25.2075479,34.0943237 24.8725962,33.755408 24.4595539,33.755408 Z" id="Path"></path>
                                        <path d="M28.9779614,13.0304665 C28.8869305,12.8109811 28.7754046,12.6041351 28.6456276,12.4122747 L30.5929553,12.4122747 C32.4901673,12.4122747 34.0337277,10.8504472 34.0337277,8.93078299 C34.0337277,7.01111876 32.4901673,5.44929132 30.5929553,5.44929132 L24.6030192,5.44929132 C24.9838229,4.8890739 25.2073983,4.21131829 25.2073983,3.48149167 C25.2073983,1.56182744 23.6638379,0 21.7666259,0 L3.44077247,0 C1.54356045,0 0,1.56182744 0,3.48149167 C0,5.40115591 1.54356045,6.96298335 3.44077247,6.96298335 L9.43070855,6.96298335 C9.0499048,7.52320077 8.82632939,8.20095638 8.82632939,8.93078299 C8.82632939,9.66060961 9.04983,10.3383652 9.43070855,10.8985826 L7.47994016,10.8985826 C5.58272814,10.8985826 4.03916769,12.4604101 4.03916769,14.3800743 C4.03916769,15.4825719 4.54885081,16.466396 5.34179927,17.10472 C4.54885081,17.7430439 4.03916769,18.726868 4.03916769,19.8293656 C4.03916769,20.9318632 4.54885081,21.9156874 5.34179927,22.5540113 C4.54885081,23.1923352 4.03916769,24.1761594 4.03916769,25.2786569 C4.03916769,26.3811545 4.54885081,27.3649787 5.34179927,28.0033026 C4.54885081,28.6416265 4.03916769,29.6254507 4.03916769,30.7279483 C4.03916769,32.6476125 5.58272814,34.2094399 7.47994016,34.2094399 L16.2950496,34.2094399 C18.6172719,36.7226985 21.9208622,38.2964841 25.5814701,38.2964841 C32.5930165,38.2964841 38.2973684,32.524625 38.2973684,25.4301018 C38.2973684,19.5254163 34.345716,14.5377253 28.9779614,13.0304665 Z M30.5929553,6.96298335 C31.6653543,6.96298335 32.5377397,7.84576854 32.5377397,8.93078299 C32.5377397,10.0157974 31.6653543,10.8985826 30.5929553,10.8985826 L25.8057936,10.8985826 L12.2671019,10.8985826 C11.1947028,10.8985826 10.3223174,10.0157974 10.3223174,8.93078299 C10.3223174,7.84576854 11.1947028,6.96298335 12.2671019,6.96298335 L30.5929553,6.96298335 Z M3.44077247,5.44929132 C2.36837345,5.44929132 1.49598803,4.56650612 1.49598803,3.48149167 C1.49598803,2.39647723 2.36837345,1.51369203 3.44077247,1.51369203 L21.7666259,1.51369203 C22.8390249,1.51369203 23.7114103,2.39647723 23.7114103,3.48149167 C23.7114103,4.56650612 22.8390249,5.44929132 21.7666259,5.44929132 L3.44077247,5.44929132 Z M7.47994016,12.4122747 L25.8057936,12.4122747 C26.1070855,12.4122747 26.3955868,12.4831155 26.6543928,12.6099628 C26.3005916,12.5799161 25.9429009,12.5637196 25.5814701,12.5637196 C22.0700122,12.5637196 18.8865497,14.0114903 16.5831769,16.347874 L7.47994016,16.347874 C6.40761594,16.347874 5.53515572,15.4650888 5.53515572,14.3800743 C5.53515572,13.2950599 6.40761594,12.4122747 7.47994016,12.4122747 Z M7.47994016,17.861566 L15.3050796,17.861566 C14.4559568,19.0386886 13.7994424,20.3663479 13.3825105,21.7971653 L7.47994016,21.7971653 C6.40754114,21.7971653 5.53515572,20.9144558 5.53515572,19.8293656 C5.53515572,18.7443512 6.40754114,17.861566 7.47994016,17.861566 Z M7.47994016,23.3108573 L13.0390317,23.3108573 C12.925561,24.0005711 12.8655719,24.7082978 12.8655719,25.4301018 C12.8655719,26.0466286 12.9096287,26.6528623 12.9928805,27.2464566 L7.47994016,27.2464566 C6.40754114,27.2464566 5.53515572,26.3637471 5.53515572,25.2786569 C5.53515572,24.1935668 6.40754114,23.3108573 7.47994016,23.3108573 Z M7.47994016,32.6957479 C6.40754114,32.6957479 5.53515572,31.8130384 5.53515572,30.7279483 C5.53515572,29.6428581 6.40754114,28.7601486 7.47994016,28.7601486 L13.2982864,28.7601486 C13.6757242,30.184003 14.2888549,31.5109811 15.0929485,32.6957479 L7.47994016,32.6957479 Z M25.5814701,36.7827921 C19.3948116,36.7827921 14.3615599,31.6899752 14.3615599,25.4301018 C14.3615599,19.1702284 19.3948116,14.0774116 25.5814701,14.0774116 C31.7681287,14.0774116 36.8013804,19.1702284 36.8013804,25.4301018 C36.8013804,31.6899752 31.7681287,36.7827921 25.5814701,36.7827921 Z" id="Shape" fill-rule="nonzero"></path>
                                    </g>
                                </g>
                            </g>
                        </g>
                    </g>
                </g>
            </g>
        </g>
    </g>
</svg>