<?xml version="1.0" encoding="UTF-8"?>
<svg width="13px" height="16px" viewBox="0 0 13 16" version="1.1" xmlns="http://www.w3.org/2000/svg" xmlns:xlink="http://www.w3.org/1999/xlink">
    <!-- Generator: Sketch 52.1 (67048) - http://www.bohemiancoding.com/sketch -->
    <title>Lock Icon</title>
    <desc>Created with Sketch.</desc>
    <g id="Page-1" stroke="none" stroke-width="1" fill="none" fill-rule="evenodd">
        <g id="About-Us" transform="translate(-1252.000000, -32.000000)" fill="#FFFFFF" fill-rule="nonzero">
            <g id="Header">
                <g id="Menu" transform="translate(75.000000, 15.000000)">
                    <g id="Clients-Portal" transform="translate(1030.000000, 0.000000)">
                        <g id="Primary">
                            <path d="M158.833669,23.9283647 L158.400801,23.9283647 L158.400801,21.9597726 C158.400801,19.2249563 156.175845,17 153.441028,17 C150.706212,17 148.481256,19.2249563 148.481256,21.9597705 L148.481256,23.9283626 L148.048387,23.9283626 C147.469382,23.9283626 147,24.3977444 147,24.9767497 L147,31.1448932 C147,31.7238985 147.469382,32.1932803 148.048387,32.1932803 L158.833669,32.1932803 C159.412675,32.1932803 159.882056,31.7238985 159.882056,31.1448932 L159.882056,24.9767497 C159.882056,24.3977444 159.412675,23.9283647 158.833669,23.9283647 Z M156.304027,23.9283647 L150.57803,23.9283647 L150.57803,21.9597726 C150.57803,20.3810484 151.862407,19.0967742 153.441028,19.0967742 C155.01965,19.0967742 156.304027,20.3810484 156.304027,21.9597726 L156.304027,23.9283647 Z" id="Lock-Icon"></path>
                        </g>
                    </g>
                </g>
            </g>
        </g>
    </g>
</svg>