<?xml version="1.0" encoding="UTF-8"?>
<svg width="30px" height="22px" viewBox="0 0 30 22" version="1.1" xmlns="http://www.w3.org/2000/svg" xmlns:xlink="http://www.w3.org/1999/xlink">
    <!-- Generator: Sketch 52.1 (67048) - http://www.bohemiancoding.com/sketch -->
    <title>Shape</title>
    <desc>Created with Sketch.</desc>
    <g id="Page-1" stroke="none" stroke-width="1" fill="none" fill-rule="evenodd">
        <g id="Wireless-RackKVM" transform="translate(-1090.000000, -427.000000)" fill="#FFD500">
            <g id="Content" transform="translate(75.000000, 330.000000)">
                <g id="Testimonials" transform="translate(844.000000, 0.000000)">
                    <path d="M183.458619,97 L183.458619,100.697396 C181.516577,100.697396 179.708806,101.318814 178.035305,102.561649 C176.361804,103.804484 175.524679,105.288601 175.524679,107.014002 C175.524679,108.041352 175.937991,108.554268 176.764615,108.554268 C176.950643,108.554268 177.321948,108.482945 177.880032,108.338783 C178.459119,108.215865 178.923439,108.154406 179.275241,108.154406 C180.410912,108.154406 181.480572,108.611174 182.482722,109.52547 C183.484873,110.439007 183.985198,111.697017 183.985198,113.2995 C183.985198,114.861011 183.46912,116.200966 182.436215,117.320883 C181.40331,118.440041 179.987848,119 178.189828,119 C176.041506,119 174.305746,118.193447 172.983297,116.5811 C171.661599,114.968753 171,112.724366 171,109.848698 C171,105.884221 172.213682,102.777134 174.641046,100.528195 C177.06916,98.2784963 180.008101,97.1031902 183.458619,97 Z M200.473421,97 L200.473421,100.697396 C198.634895,100.697396 196.852628,101.30895 195.127369,102.531298 C193.40211,103.752888 192.539481,105.247629 192.539481,107.014002 C192.539481,108.041352 192.952793,108.554268 193.779417,108.554268 C193.965445,108.554268 194.336751,108.482945 194.894834,108.338783 C195.473921,108.215865 195.938241,108.154406 196.289293,108.154406 C197.487973,108.154406 198.572636,108.626349 199.543281,109.571754 C200.514677,110.516399 201,111.759234 201,113.2995 C201,114.861011 200.483923,116.200966 199.451018,117.320883 C198.417363,118.440041 197.0019,119 195.204631,119 C193.055558,119 191.320548,118.193447 189.9981,116.5811 C188.675651,114.968753 188.014802,112.724366 188.014802,109.848698 C188.014802,105.884221 189.228484,102.777134 191.655848,100.528195 C194.083963,98.2784963 197.022903,97.1031902 200.473421,97 Z" id="Shape"></path>
                </g>
            </g>
        </g>
    </g>
</svg>